<svg width="329" height="212" viewBox="0 0 329 212" fill="none" xmlns="http://www.w3.org/2000/svg">
<path d="M328.511 132.011L317.582 89.5292C316.513 85.3816 313.174 82.5495 309.05 81.8102L284.951 67.4758L285.138 28.5385C285.138 12.8015 272.225 0 256.351 0H187.809C178.208 0 169.748 4.72923 164.516 11.9046C159.285 4.72379 150.825 0 141.223 0H72.6824C56.8082 0 43.8951 12.8015 43.8951 28.5385V67.5736L19.9605 81.8102C15.8316 82.5495 12.4923 85.3816 11.4231 89.5292L0.489383 132.011C-0.163128 134.549 -0.163128 137.235 0.489383 139.779L11.4176 182.26C12.6513 187.049 16.9173 190.273 21.6658 190.273C21.8523 190.273 22.0387 190.267 22.2251 190.256H32.9066V212H46.1432L68.0764 190.256H260.935L282.868 212H296.104V190.251L306.495 190.246C306.693 190.256 306.896 190.262 307.098 190.262C312.088 190.262 316.354 187.044 317.582 182.26L328.511 139.779C329.163 137.235 329.163 134.549 328.511 132.011ZM296.56 89.5292L287.775 123.661L281.491 115.866L274.758 107.511L276.54 101.303L282.961 78.9781L297.294 87.5016C296.993 88.1376 296.74 88.8171 296.56 89.5292ZM62.9769 114.154H159.022H170.011H266.072L279.221 130.462H49.8061L62.9769 114.154ZM187.809 10.8718H256.351C266.177 10.8718 274.171 18.7973 274.171 28.5385V69.9002L264.565 103.282H170.005V28.5385C170.005 28.5004 169.994 28.4678 169.994 28.4352C170.055 18.7375 178.016 10.8718 187.809 10.8718ZM54.8562 28.5385C54.8562 18.7973 62.8508 10.8718 72.6769 10.8718H141.218C151.006 10.8718 158.967 18.743 159.028 28.4352C159.028 28.4732 159.017 28.5058 159.017 28.5385V103.282H64.4794L54.8617 69.9056L54.8562 28.5385ZM46.05 78.9673L54.2914 107.506L41.2357 123.672L32.4515 89.5292C32.265 88.8171 32.0183 88.1376 31.7057 87.4962L46.05 78.9673ZM22.0497 179.575L11.1215 137.093C10.9186 136.305 10.9186 135.479 11.1215 134.696L21.8249 92.2146L32.753 134.696C32.8517 135.087 32.9066 135.49 32.9066 135.897V179.385V179.45L22.0497 179.575ZM43.8732 198.872V190.256H52.5697L43.8732 198.872ZM79.043 179.385H43.8732V141.333H285.138V179.385H249.968H79.043ZM285.138 198.872L276.441 190.256H285.138V198.872ZM317.884 137.093L306.775 179.385H296.104V135.897C296.104 135.495 296.159 135.093 296.252 134.702L306.994 92.3831L317.889 134.702C318.081 135.479 318.081 136.311 317.884 137.093Z" fill="black"/>
</svg>
