<svg width="254" height="212" viewBox="0 0 254 212" fill="none" xmlns="http://www.w3.org/2000/svg">
<path d="M227.542 0H26.4583C11.8745 0 0 11.8932 0 26.5V212H10.5833V180.2H243.417V212H254V26.5C254 11.8932 242.136 0 227.542 0ZM26.4583 10.6H227.542C236.294 10.6 243.417 17.7338 243.417 26.5V116.6H222.25V100.7C222.25 86.0932 210.386 74.2 195.792 74.2H148.167C139.52 74.2 131.826 78.3764 127 84.8212C122.174 78.3764 114.48 74.2 105.833 74.2H58.2083C43.6245 74.2 31.75 86.0932 31.75 100.7V116.6H10.5833V26.5C10.5833 17.7338 17.7059 10.6 26.4583 10.6ZM121.708 116.6H42.3333V100.7C42.3333 91.9338 49.4559 84.8 58.2083 84.8H105.833C114.586 84.8 121.708 91.9338 121.708 100.7V116.6ZM211.667 116.6H132.292V100.7C132.292 91.9338 139.414 84.8 148.167 84.8H195.792C204.544 84.8 211.667 91.9338 211.667 100.7V116.6ZM10.5833 169.6V127.2H243.417V169.6H10.5833Z" fill="black"/>
</svg>
