<svg width="196" height="212" viewBox="0 0 196 212" fill="none" xmlns="http://www.w3.org/2000/svg">
<path d="M166.458 115.955V39.75C166.458 17.8345 146.689 0 122.396 0H73.4375C49.1444 0 29.375 17.8345 29.375 39.75V115.955C12.504 119.886 0 133.737 0 150.167V207.583C0 210.021 2.19333 212 4.89583 212C7.59833 212 9.79167 210.021 9.79167 207.583V159H186.042V207.583C186.042 210.021 188.235 212 190.938 212C193.64 212 195.833 210.021 195.833 207.583V150.167C195.833 133.728 183.329 119.886 166.458 115.955ZM156.667 39.75V114.833H127.292V9.15133C143.879 11.2978 156.667 24.2033 156.667 39.75ZM78.3333 114.833V8.83333H117.5V114.833H78.3333ZM39.1667 39.75C39.1667 24.2033 51.9546 11.2978 68.5417 9.15133V114.833H39.1667V39.75ZM9.79167 150.167C9.79167 135.556 22.9713 123.667 39.1667 123.667H156.667C172.862 123.667 186.042 135.556 186.042 150.167H9.79167Z" fill="black"/>
</svg>
