<svg width="272" height="212" viewBox="0 0 272 212" fill="none" xmlns="http://www.w3.org/2000/svg">
<path d="M57.6295 0L2.14355 55.4738C1.75109 55.7718 1.40099 56.1218 1.10286 56.5142L0.0727851 57.5441V58.8818C-0.0242617 59.4688 -0.0242617 60.0678 0.0727851 60.6548L0.0727851 92.4103H16.3841V212H49.0066V92.4103H59.8808V173.949H92.5033V92.4103H179.497V173.949H212.119V92.4103H222.993V212H255.616V92.4103H271.927V60.7079C272.024 60.1209 272.024 59.5219 271.927 58.9349V57.5441L270.876 56.493C270.589 56.1146 270.253 55.7755 269.878 55.4844C269.867 55.4773 269.856 55.4702 269.846 55.4631L214.371 0H212.119H57.6295ZM62.132 10.8718H209.868L253.365 54.359H18.6353L62.132 10.8718ZM10.947 65.2308H261.053V81.5385H251.092C250.505 81.4414 249.906 81.4414 249.319 81.5385H229.269C228.964 81.4874 228.655 81.4626 228.346 81.4641C228.082 81.4698 227.82 81.4947 227.56 81.5385H207.595C207.008 81.4414 206.409 81.4414 205.822 81.5385H185.773C185.467 81.4874 185.158 81.4626 184.849 81.4641C184.585 81.4698 184.323 81.4947 184.063 81.5385H87.9795C87.3923 81.4414 86.7932 81.4414 86.206 81.5385H66.1568C65.8515 81.4874 65.5424 81.4626 65.2329 81.4641C64.9695 81.4698 64.7069 81.4947 64.4471 81.5385H44.4828C43.8956 81.4414 43.2965 81.4414 42.7093 81.5385H22.6601C22.3548 81.4874 22.0457 81.4626 21.7362 81.4641C21.4728 81.4698 21.2102 81.4947 20.9504 81.5385H10.947V65.2308ZM27.2582 92.4103H38.1324V201.128H27.2582V92.4103ZM70.7549 92.4103H81.6291V163.077H70.7549V92.4103ZM190.371 92.4103H201.245V163.077H190.371V92.4103ZM233.868 92.4103H244.742V201.128H233.868V92.4103Z" fill="black"/>
</svg>
