<svg width="148" height="213" viewBox="0 0 148 213" fill="none" xmlns="http://www.w3.org/2000/svg">
<path d="M125.255 0H22.4049C10.4647 0 0 10.5109 0 22.4512V176.381C0 186.892 8.11357 195.928 18.4404 197.818V207.453C18.4404 209.989 20.5149 212.063 23.0506 212.063C25.5863 212.063 27.6608 209.989 27.6608 207.453V198.233H119.862V207.453C119.862 209.989 121.936 212.063 124.472 212.063C127.007 212.063 129.082 209.989 129.082 207.453V197.818C139.408 195.974 147.522 186.938 147.522 176.381V22.4512C147.522 10.5109 137.103 0 125.255 0ZM69.151 189.013H22.4049C15.4898 189.013 9.21999 183.019 9.21999 176.381V22.4512C9.21999 15.6744 15.6281 9.22042 22.4049 9.22042H69.151V189.013ZM138.302 176.381C138.302 183.112 132.217 189.013 125.255 189.013H78.371V9.22042H125.255C131.986 9.22042 138.302 15.6744 138.302 22.4512V176.381Z" fill="black"/>
<path d="M55.3207 110.642C57.8563 110.642 59.9309 108.567 59.9309 106.031V78.3711C59.9309 75.8354 57.8563 73.7609 55.3207 73.7609C52.785 73.7609 50.7104 75.8354 50.7104 78.3711V106.031C50.7104 108.567 52.785 110.642 55.3207 110.642Z" fill="black"/>
<path d="M92.201 73.7612C89.6653 73.7612 87.5908 75.8358 87.5908 78.3714V106.032C87.5908 108.568 89.6653 110.642 92.201 110.642C94.7367 110.642 96.8112 108.568 96.8112 106.032V78.3714C96.8112 75.8358 94.7367 73.7612 92.201 73.7612Z" fill="black"/>
</svg>
