<svg width="230" height="213" viewBox="0 0 230 213" fill="none" xmlns="http://www.w3.org/2000/svg">
<path d="M190.849 199.208C189.562 199.208 188.519 200.251 188.519 201.538V208.219C188.519 210.436 186.722 212.234 184.505 212.234V212.234C182.287 212.234 180.49 210.436 180.49 208.219V200.518C180.49 199.794 179.904 199.208 179.18 199.208V199.208C179.086 199.208 178.974 199.226 178.862 199.226H52.9254C52.7756 199.245 52.6259 199.245 52.4762 199.245H52.4201V199.245C50.5905 199.245 49.1074 200.728 49.1074 202.558V208.219C49.1074 210.436 47.3101 212.234 45.0929 212.234V212.234C42.8758 212.234 41.0785 210.436 41.0785 208.219V201.556C41.0785 200.28 40.0436 199.245 38.7671 199.245H36.4651C36.4599 199.245 36.4557 199.241 36.4557 199.236V199.236C36.4557 199.23 36.4515 199.226 36.4464 199.226C31.9214 199.206 28.2003 198.308 25.3949 195.914C22.5127 193.462 20.8845 189.756 20.7347 184.31C20.7347 184.254 20.7347 184.179 20.7347 184.123L20.751 133.255C20.7525 128.799 17.7182 125.043 13.7387 123.038C12.8667 122.599 12.0354 122.131 11.246 121.632C7.54033 119.292 4.77044 116.298 3.06733 112.555C-2.67833 99.9407 0.222574 89.329 7.01629 82.1797C10.1043 78.9232 14.0159 76.434 18.283 74.8432C22.5314 73.2524 27.1354 72.5599 31.6084 72.9155V72.9155C36.2937 73.2799 41.3405 70.0314 41.3405 65.3319V35.0541C41.3405 18.4347 43.8296 9.76948 50.2303 4.92217C56.4813 0.187155 65.5022 0 79.1645 0H150.695C165.555 0 174.576 0.58018 180.528 5.89538C186.479 11.2106 188.22 20.325 188.22 37.1877V63.5188C188.22 69.7621 195.021 74.1172 201.264 74.1695V74.1695C205.625 74.2069 209.948 75.1239 213.841 76.7896C217.79 78.4927 221.346 80.9819 224.135 84.1448C230.236 91.1257 232.444 101.101 226.53 112.705C224.733 116.242 222.001 119.18 218.408 121.52C217.604 122.039 216.758 122.528 215.871 122.988C211.93 125.027 208.919 128.778 208.919 133.215V184.17C208.919 184.175 208.915 184.179 208.91 184.179V184.179C208.904 184.179 208.9 184.183 208.9 184.188V184.273C208.75 189.738 207.122 193.425 204.24 195.876C201.435 198.251 197.713 199.169 193.189 199.189C193.183 199.189 193.179 199.193 193.179 199.198V199.198C193.179 199.203 193.175 199.208 193.17 199.208H190.849ZM49.3507 77.7137C49.3507 80.1457 50.3012 82.4537 51.6247 84.494C53.0631 86.7114 54.2598 89.2694 55.1525 92.1737C55.7888 94.2325 56.238 96.4783 56.4626 98.9113C56.6872 101.251 56.6872 103.759 56.4439 106.472V107.196C56.4439 112.719 60.921 117.196 66.4439 117.196H163.172C168.695 117.196 173.172 112.719 173.172 107.196V106.304C172.948 103.665 172.873 101.213 173.041 98.9675C173.228 96.4034 173.715 94.0266 174.595 91.8743C175.481 89.6873 176.544 87.7198 177.754 85.963C179.18 83.8925 180.191 81.5136 180.191 78.9997V37.1877C180.191 22.7767 179.068 15.3093 175.194 11.8469C171.338 8.40325 163.609 8.02894 150.695 8.02894H79.1645C67.1491 8.02894 59.2512 8.15995 55.0402 11.3416C50.9415 14.4296 49.3507 21.2795 49.3507 35.0728V77.7137ZM63.1908 125.225C59.4646 125.225 56.4439 128.246 56.4439 131.972V131.972C56.4439 135.698 59.4646 138.719 63.1908 138.719H166.425C170.152 138.719 173.172 135.698 173.172 131.972V131.972C173.172 128.246 170.152 125.225 166.425 125.225H63.1908ZM43.7009 87.2953C43.349 86.8726 42.9015 86.541 42.5114 86.1532V86.1532C42.1105 85.7547 41.7685 85.2949 41.331 84.937C38.3414 82.4913 34.7242 81.2035 31.0095 80.907C27.6595 80.645 24.2345 81.1503 21.0716 82.3294C17.9274 83.5085 15.064 85.3239 12.8181 87.7007C8.13922 92.6416 6.21153 100.128 10.3476 109.242C11.377 111.488 13.1363 113.341 15.5506 114.876C18.2082 116.56 21.6144 117.833 25.6382 118.731C27.4162 119.124 28.7637 120.734 28.7637 122.643L28.745 184.142C28.8198 187.08 29.4562 188.877 30.5791 189.831C31.7755 190.859 33.7934 191.253 36.465 191.254C36.4702 191.254 36.4745 191.249 36.4745 191.244V191.244C36.4745 191.239 36.4787 191.235 36.4838 191.235H45.7948C45.9445 191.216 46.0942 191.216 46.2439 191.216V191.216C47.4534 191.216 48.4339 190.236 48.4341 189.026L48.4524 106.398C48.4524 106.248 48.4524 106.117 48.4711 105.967C48.677 103.684 48.677 101.588 48.4898 99.6787C48.3214 97.8071 47.9845 96.104 47.4979 94.5506C46.6052 91.6198 45.3031 89.2195 43.7009 87.2953ZM181.212 119.966C181.207 119.966 181.203 119.971 181.205 119.977C181.334 120.366 181.407 120.775 181.407 121.22V121.22C181.407 122.065 181.201 122.905 181.201 123.75V140.939C181.201 141.54 181.295 142.142 181.295 142.743V142.743V142.743C181.295 143.345 181.201 143.944 181.201 144.546V185.218C181.201 188.52 183.878 191.197 187.181 191.197H193.151C193.156 191.197 193.16 191.202 193.16 191.207V191.207C193.16 191.212 193.165 191.216 193.17 191.216C195.823 191.215 197.841 190.822 199.056 189.794C200.159 188.859 200.795 187.103 200.89 184.207C200.89 184.202 200.886 184.198 200.88 184.198V184.198C200.875 184.198 200.871 184.194 200.871 184.189V122.624C200.871 120.603 202.368 118.937 204.296 118.656C208.208 117.758 211.464 116.466 214.028 114.801C216.405 113.247 218.202 111.338 219.362 109.074C223.536 100.895 222.169 94.064 218.089 89.4226C216.143 87.1954 213.56 85.4175 210.659 84.1635C207.702 82.8909 204.446 82.1984 201.189 82.161C193.441 82.1048 185.637 85.8853 182.025 94.8313C181.482 96.1789 181.164 97.751 181.052 99.5102C180.902 101.494 180.977 103.628 181.183 105.93C181.201 106.039 181.201 106.166 181.201 106.276C181.201 106.281 181.205 106.285 181.211 106.285V106.285C181.216 106.285 181.22 106.289 181.22 106.295V119.958C181.22 119.963 181.216 119.966 181.212 119.966V119.966ZM56.4252 181.197C56.4252 186.72 60.9023 191.197 66.4252 191.197H163.172C168.695 191.197 173.172 186.72 173.172 181.197V156.748C173.172 151.225 168.695 146.748 163.172 146.748H66.4252C60.9023 146.748 56.4252 151.225 56.4252 156.748V181.197Z" fill="black"/>
</svg>
