<svg width="141" height="141" viewBox="0 0 141 141" fill="none" xmlns="http://www.w3.org/2000/svg">
<g clip-path="url(#clip0_25_94)">
<path d="M133.167 85.1342H129.276C127.818 85.1342 126.371 85.2455 124.931 85.468L83.8306 54.5248L93.6769 45.0614C96.0043 42.8244 96.086 39.1117 93.8577 36.781C91.6236 34.4444 87.9255 34.3683 85.6097 36.5995L61.2682 59.9943C60.055 61.2123 58.4042 61.8389 56.6718 61.6925C54.9335 61.552 53.4052 60.6677 52.3611 59.2037C50.7628 56.9784 51.2528 53.4941 53.3411 51.3918L80.7741 25.4554C85.9714 20.5539 94.0969 19.3535 100.455 22.5567L113.964 29.338C117.989 31.3583 122.504 32.4241 127.001 32.4241H133.161C136.387 32.4241 138.994 29.8065 138.994 26.5681C138.994 23.3297 136.387 20.7121 133.161 20.7121H127.001C124.301 20.7121 121.588 20.0737 119.173 18.8616L105.676 12.0803C95.036 6.73372 81.4507 8.71891 72.7711 16.9291L69.1662 20.3373L65.0831 16.6011C59.7225 11.6996 52.7811 9 45.3089 9C40.8116 9 36.3259 10.0658 32.3186 12.0744L18.8208 18.8557C16.4001 20.0679 13.6877 20.7062 10.987 20.7062H4.83892C1.61322 20.7062 -0.994167 23.3238 -0.994167 26.5622C-0.994167 29.8006 1.61322 32.4183 4.83892 32.4183H10.9987C15.496 32.4183 20.0108 31.3466 24.0415 29.3321L37.5509 22.5508C43.5123 19.5409 51.8886 20.3548 57.2317 25.2563L60.6558 28.3893L45.2214 42.9825C38.9625 49.2602 37.965 59.1862 42.8998 66.0436C45.933 70.2775 51.9586 73.4163 57.1559 73.4163C61.7816 73.4163 66.2205 71.5892 69.4287 68.3626L75.2968 62.7232L112.314 90.592C112.133 90.7209 76.1601 117.799 76.1601 117.799C71.9428 121.09 66.0572 121.09 61.7524 117.735L26.223 90.9844C21.2124 87.2073 14.9943 85.1284 8.72376 85.1284H4.83309C1.60739 85.1284 -1 87.746 -1 90.9844C-1 94.2228 1.60739 96.8404 4.83309 96.8404H8.72376C12.4861 96.8404 16.2134 98.0878 19.2233 100.354L54.671 127.046C58.9 130.349 63.969 132 69.0263 132C74.0544 132 79.0767 130.366 83.2415 127.11L118.783 100.36C121.787 98.0936 125.514 96.8463 129.276 96.8463H133.167C136.393 96.8463 139 94.2286 139 90.9902C139 87.7519 136.393 85.1342 133.167 85.1342Z" fill="black"/>
</g>
<defs>
<clipPath id="clip0_25_94">
<rect width="141" height="141" fill="white"/>
</clipPath>
</defs>
</svg>
