<svg width="50" height="50" viewBox="0 0 50 50" fill="none" xmlns="http://www.w3.org/2000/svg">
<path d="M10.4783 0H39.5217C45.3062 0.00620117 49.9938 4.6937 50 10.4776V39.5217C49.9938 45.3062 45.3063 49.9938 39.5224 50H10.4783C4.69385 49.9938 0.00620117 45.3062 0 39.5223V10.4783C0.00620117 4.6938 4.69375 0.00620117 10.4776 0H10.4782H10.4783ZM39.5217 45.6522C42.906 45.6485 45.6484 42.906 45.6521 39.5221V10.4784C45.6484 7.09409 42.906 4.35161 39.5221 4.3479H10.4782C7.09395 4.35161 4.35151 7.09409 4.34785 10.478V39.5218C4.35151 42.9061 7.09395 45.6485 10.4779 45.6522H10.4782H39.5217ZM25 12.4565C31.9276 12.4565 37.5435 18.0725 37.5435 25C37.5435 31.9275 31.9275 37.5435 25 37.5435C18.0724 37.5435 12.4565 31.9275 12.4565 25C12.4652 18.0759 18.0759 12.4652 24.9992 12.4565H25ZM25 33.1957C29.5264 33.1957 33.1957 29.5263 33.1957 25C33.1957 20.4737 29.5264 16.8043 25 16.8043C20.4736 16.8043 16.8043 20.4737 16.8043 25C16.8092 29.5244 20.4756 33.1907 24.9995 33.1957H25ZM41.5869 11.5217C41.5869 13.2386 40.1952 14.6304 38.4783 14.6304C36.7614 14.6304 35.3696 13.2386 35.3696 11.5217C35.3696 9.80483 36.7613 8.41304 38.4782 8.41304C40.1951 8.41304 41.5869 9.80483 41.5869 11.5217Z" fill="white"/>
</svg>
