<svg width="141" height="141" viewBox="0 0 141 141" fill="none" xmlns="http://www.w3.org/2000/svg">
<g clip-path="url(#clip0_25_102)">
<path d="M109.163 12.5725L72.3565 0.299575C71.1514 -0.101811 69.8486 -0.101811 68.6435 0.299575L31.8366 12.5725C25.9846 14.5164 20.894 18.2551 17.288 23.2574C13.6821 28.2597 11.7444 34.2711 11.75 40.4376V70.5C11.75 114.933 65.8 139.472 68.1148 140.495C68.8657 140.828 69.6783 141.001 70.5 141.001C71.3217 141.001 72.1343 140.828 72.8853 140.495C75.2 139.472 129.25 114.933 129.25 70.5V40.4376C129.256 34.2711 127.318 28.2597 123.712 23.2574C120.106 18.2551 115.015 14.5164 109.163 12.5725ZM117.5 70.5C117.5 102.548 80.3759 123.569 70.5 128.598C60.6124 123.586 23.5 102.63 23.5 70.5V40.4376C23.5004 36.7379 24.6649 33.1322 26.8286 30.1313C28.9923 27.1304 32.0455 24.8864 35.5555 23.7173L70.5 12.0672L105.445 23.7173C108.955 24.8864 112.008 27.1304 114.171 30.1313C116.335 33.1322 117.5 36.7379 117.5 40.4376V70.5Z" fill="black"/>
<path d="M89.8875 48.7625L65.283 73.4375L52.0995 59.69C51.5704 59.1115 50.9309 58.6447 50.2187 58.3172C49.5064 57.9897 48.7359 57.8081 47.9523 57.783C47.1688 57.7579 46.3882 57.8899 45.6564 58.1711C44.9247 58.4524 44.2566 58.8773 43.6916 59.4207C43.1266 59.9642 42.6761 60.6152 42.3666 61.3354C42.0571 62.0557 41.8948 62.8306 41.8894 63.6145C41.884 64.3984 42.0356 65.1755 42.3351 65.8999C42.6347 66.6244 43.0762 67.2815 43.6336 67.8327L57.1814 81.9327C58.1917 83.024 59.4129 83.899 60.7711 84.5049C62.1293 85.1108 63.5962 85.4349 65.0833 85.4577H65.2771C66.7345 85.4625 68.1782 85.1778 69.5246 84.6201C70.871 84.0624 72.0932 83.2427 73.1203 82.2088L98.2183 57.1108C98.7664 56.5638 99.2015 55.9142 99.4986 55.1991C99.7957 54.4839 99.949 53.7173 99.9498 52.9429C99.9507 52.1685 99.7989 51.4015 99.5033 50.6857C99.2078 49.97 98.7741 49.3194 98.2271 48.7713C97.6801 48.2231 97.0304 47.788 96.3153 47.4909C95.6002 47.1938 94.8335 47.0405 94.0591 47.0397C93.2847 47.0389 92.5177 47.1906 91.802 47.4862C91.0862 47.7818 90.4357 48.2154 89.8875 48.7625Z" fill="black"/>
</g>
<defs>
<clipPath id="clip0_25_102">
<rect width="141" height="141" fill="white"/>
</clipPath>
</defs>
</svg>
