<svg width="185" height="64" viewBox="0 0 185 64" fill="none" xmlns="http://www.w3.org/2000/svg">
<path fill-rule="evenodd" clip-rule="evenodd" d="M5.968 34.232C7.856 35.064 10.192 35.48 12.976 35.48C15.568 35.48 17.808 35.112 19.696 34.376C21.616 33.608 23.104 32.52 24.16 31.112C25.216 29.672 25.744 27.944 25.744 25.928C25.744 24.104 25.344 22.616 24.544 21.464C23.776 20.28 22.576 19.304 20.944 18.536C19.312 17.736 17.216 16.984 14.656 16.28C12.544 15.672 10.832 15.096 9.52 14.552C8.208 14.008 7.248 13.384 6.64 12.68C6.032 11.944 5.728 11.032 5.728 9.94398C5.728 8.24798 6.368 6.99998 7.648 6.19998C8.96 5.39998 10.656 4.99998 12.736 4.99998C14.784 4.99998 16.448 5.44798 17.728 6.34398C19.008 7.23998 19.744 8.34398 19.936 9.65598C20.064 10.008 20.24 10.248 20.464 10.376C20.72 10.504 20.96 10.568 21.184 10.568H23.728C24.08 10.568 24.336 10.472 24.496 10.28C24.656 10.056 24.736 9.83198 24.736 9.60798C24.704 8.64798 24.432 7.67198 23.92 6.67998C23.408 5.65598 22.656 4.71198 21.664 3.84798C20.672 2.95198 19.424 2.24798 17.92 1.73598C16.448 1.19198 14.72 0.919983 12.736 0.919983C10.24 0.919983 8.112 1.31998 6.352 2.11998C4.624 2.91998 3.296 4.00798 2.368 5.38398C1.44 6.72798 0.976 8.26398 0.976 9.99198C0.976 11.816 1.344 13.32 2.08 14.504C2.848 15.688 4 16.68 5.536 17.48C7.072 18.28 9.008 19.016 11.344 19.688C13.584 20.328 15.408 20.92 16.816 21.464C18.224 22.008 19.264 22.632 19.936 23.336C20.64 24.008 20.992 24.904 20.992 26.024C20.992 27.656 20.336 28.968 19.024 29.96C17.744 30.92 15.728 31.4 12.976 31.4C11.184 31.4 9.712 31.16 8.56 30.68C7.44 30.168 6.56 29.544 5.92 28.808C5.312 28.04 4.928 27.272 4.768 26.504C4.704 26.248 4.576 26.024 4.384 25.832C4.192 25.64 3.904 25.544 3.52 25.544H1.072C0.784 25.544 0.528 25.656 0.304 25.88C0.112 26.072 0.0160002 26.296 0.0160002 26.552C0.0800002 28.088 0.608 29.544 1.6 30.92C2.624 32.264 4.08 33.368 5.968 34.232ZM33.4754 32.456C35.4274 34.472 38.0514 35.48 41.3474 35.48C43.0114 35.48 44.4834 35.272 45.7634 34.856C47.0434 34.408 48.1314 33.848 49.0274 33.176C49.9234 32.504 50.6114 31.832 51.0914 31.16C51.5714 30.456 51.8274 29.864 51.8594 29.384C51.8914 29.064 51.7954 28.824 51.5714 28.664C51.3794 28.472 51.1234 28.376 50.8034 28.376H48.4994C48.1474 28.376 47.8914 28.424 47.7314 28.52C47.5714 28.584 47.3474 28.824 47.0594 29.24C46.8994 29.464 46.5794 29.8 46.0994 30.248C45.6194 30.664 44.9954 31.048 44.2274 31.4C43.4594 31.752 42.4994 31.928 41.3474 31.928C40.0034 31.928 38.8514 31.576 37.8914 30.872C36.9314 30.168 36.1954 29.256 35.6834 28.136C35.1714 26.984 34.8834 25.752 34.8194 24.44V24.2V24.008H51.4274C51.7474 24.008 52.0034 23.912 52.1954 23.72C52.4194 23.528 52.5314 23.256 52.5314 22.904V22.088C52.5314 19.56 52.0994 17.352 51.2354 15.464C50.3714 13.576 49.1074 12.12 47.4434 11.096C45.8114 10.072 43.7794 9.55998 41.3474 9.55998C39.1714 9.55998 37.2674 10.024 35.6354 10.952C34.0354 11.88 32.7714 13.208 31.8434 14.936C30.9154 16.632 30.3874 18.616 30.2594 20.888C30.2274 21.304 30.2114 21.848 30.2114 22.52C30.2114 23.16 30.2274 23.688 30.2594 24.104C30.4514 27.624 31.5234 30.408 33.4754 32.456ZM47.9714 20.696H34.8194V20.552C34.8194 19.112 35.0754 17.832 35.5874 16.712C36.0994 15.592 36.8354 14.712 37.7954 14.072C38.7874 13.4 39.9714 13.064 41.3474 13.064C42.7234 13.064 43.9074 13.4 44.8994 14.072C45.8914 14.712 46.6434 15.592 47.1554 16.712C47.6994 17.832 47.9714 19.112 47.9714 20.552V20.696ZM58.5588 34.712C58.7827 34.904 59.0547 35 59.3747 35H61.7267C62.0467 35 62.3187 34.904 62.5428 34.712C62.7668 34.488 62.8787 34.216 62.8787 33.896V19.784C62.8787 18.056 63.3747 16.696 64.3668 15.704C65.3587 14.68 66.7188 14.168 68.4467 14.168H71.3268C71.6468 14.168 71.9027 14.072 72.0947 13.88C72.2868 13.688 72.3828 13.432 72.3828 13.112V11.144C72.3828 10.824 72.2868 10.568 72.0947 10.376C71.9027 10.152 71.6468 10.04 71.3268 10.04H69.4068C67.8388 10.04 66.4948 10.312 65.3747 10.856C64.2548 11.4 63.3748 12.216 62.7347 13.304V11.192C62.7347 10.872 62.6227 10.6 62.3988 10.376C62.1748 10.152 61.9028 10.04 61.5827 10.04H59.3747C59.0547 10.04 58.7827 10.152 58.5588 10.376C58.3667 10.6 58.2708 10.872 58.2708 11.192V33.896C58.2708 34.216 58.3667 34.488 58.5588 34.712ZM78.1004 32.456C80.0524 34.472 82.6764 35.48 85.9724 35.48C87.6364 35.48 89.1084 35.272 90.3884 34.856C91.6684 34.408 92.7564 33.848 93.6524 33.176C94.5484 32.504 95.2364 31.832 95.7164 31.16C96.1964 30.456 96.4524 29.864 96.4844 29.384C96.5164 29.064 96.4204 28.824 96.1964 28.664C96.0044 28.472 95.7484 28.376 95.4284 28.376H93.1244C92.7724 28.376 92.5164 28.424 92.3564 28.52C92.1964 28.584 91.9724 28.824 91.6844 29.24C91.5244 29.464 91.2044 29.8 90.7244 30.248C90.2444 30.664 89.6204 31.048 88.8524 31.4C88.0844 31.752 87.1244 31.928 85.9724 31.928C84.6284 31.928 83.4764 31.576 82.5164 30.872C81.5564 30.168 80.8204 29.256 80.3084 28.136C79.7964 26.984 79.5084 25.752 79.4444 24.44V24.2V24.008H96.0524C96.3724 24.008 96.6284 23.912 96.8204 23.72C97.0444 23.528 97.1564 23.256 97.1564 22.904V22.088C97.1564 19.56 96.7244 17.352 95.8604 15.464C94.9964 13.576 93.7324 12.12 92.0684 11.096C90.4364 10.072 88.4044 9.55998 85.9724 9.55998C83.7964 9.55998 81.8924 10.024 80.2604 10.952C78.6604 11.88 77.3964 13.208 76.4684 14.936C75.5404 16.632 75.0124 18.616 74.8844 20.888C74.8524 21.304 74.8364 21.848 74.8364 22.52C74.8364 23.16 74.8524 23.688 74.8844 24.104C75.0764 27.624 76.1484 30.408 78.1004 32.456ZM92.5964 20.696H79.4444V20.552C79.4444 19.112 79.7004 17.832 80.2124 16.712C80.7244 15.592 81.4604 14.712 82.4204 14.072C83.4124 13.4 84.5964 13.064 85.9724 13.064C87.3484 13.064 88.5324 13.4 89.5244 14.072C90.5164 14.712 91.2684 15.592 91.7804 16.712C92.3244 17.832 92.5964 19.112 92.5964 20.552V20.696ZM103.184 34.712C103.408 34.904 103.68 35 104 35H106.4C106.72 35 106.976 34.904 107.168 34.712C107.392 34.488 107.504 34.216 107.504 33.896V20.6C107.504 18.36 108.096 16.616 109.28 15.368C110.496 14.088 112.096 13.448 114.08 13.448C116.192 13.448 117.792 14.088 118.88 15.368C119.968 16.616 120.512 18.36 120.512 20.6V33.896C120.512 34.216 120.608 34.488 120.8 34.712C121.024 34.904 121.296 35 121.616 35H124.016C124.336 35 124.592 34.904 124.784 34.712C124.976 34.488 125.072 34.216 125.072 33.896V20.36C125.072 18.216 124.704 16.344 123.968 14.744C123.232 13.112 122.128 11.848 120.656 10.952C119.216 10.024 117.456 9.55998 115.376 9.55998C113.392 9.55998 111.76 9.91198 110.48 10.616C109.232 11.288 108.192 12.168 107.36 13.256V11.144C107.36 10.824 107.248 10.568 107.024 10.376C106.832 10.152 106.576 10.04 106.256 10.04H104C103.68 10.04 103.408 10.152 103.184 10.376C102.992 10.568 102.896 10.824 102.896 11.144V33.896C102.896 34.216 102.992 34.488 103.184 34.712ZM132.293 34.712C132.517 34.904 132.789 35 133.109 35H135.413C135.733 35 135.989 34.904 136.181 34.712C136.373 34.488 136.469 34.216 136.469 33.896V11.144C136.469 10.824 136.373 10.568 136.181 10.376C135.989 10.152 135.733 10.04 135.413 10.04H133.109C132.789 10.04 132.517 10.152 132.293 10.376C132.101 10.568 132.005 10.824 132.005 11.144V33.896C132.005 34.216 132.101 34.488 132.293 34.712ZM131.909 5.09598C132.133 5.28798 132.405 5.38398 132.725 5.38398H135.749C136.069 5.38398 136.325 5.28798 136.517 5.09598C136.741 4.87198 136.853 4.59998 136.853 4.27998V1.68798C136.853 1.36798 136.741 1.11198 136.517 0.919983C136.325 0.695984 136.069 0.583984 135.749 0.583984H132.725C132.405 0.583984 132.133 0.695984 131.909 0.919983C131.717 1.11198 131.621 1.36798 131.621 1.68798V4.27998C131.621 4.59998 131.717 4.87198 131.909 5.09598ZM149.006 33.992C150.126 34.664 151.582 35 153.374 35H156.686C157.006 35 157.262 34.904 157.454 34.712C157.678 34.488 157.79 34.216 157.79 33.896V32.168C157.79 31.848 157.678 31.592 157.454 31.4C157.262 31.176 157.006 31.064 156.686 31.064H153.758C152.446 31.064 151.534 30.632 151.022 29.768C150.51 28.904 150.254 27.72 150.254 26.216V13.88H156.206C156.526 13.88 156.782 13.784 156.974 13.592C157.198 13.368 157.31 13.096 157.31 12.776V11.144C157.31 10.824 157.198 10.568 156.974 10.376C156.782 10.152 156.526 10.04 156.206 10.04H150.254V2.02398C150.254 1.70398 150.142 1.44798 149.918 1.25598C149.726 1.03198 149.47 0.919983 149.15 0.919983H146.894C146.574 0.919983 146.302 1.03198 146.078 1.25598C145.886 1.44798 145.79 1.70398 145.79 2.02398V10.04H142.046C141.726 10.04 141.454 10.152 141.23 10.376C141.038 10.568 140.942 10.824 140.942 11.144V12.776C140.942 13.096 141.038 13.368 141.23 13.592C141.454 13.784 141.726 13.88 142.046 13.88H145.79V26.552C145.79 28.28 146.046 29.784 146.558 31.064C147.07 32.312 147.886 33.288 149.006 33.992ZM166.076 43.832C166.268 44.024 166.492 44.12 166.748 44.12H169.004C169.356 44.12 169.612 44.04 169.772 43.88C169.964 43.72 170.108 43.528 170.204 43.304L183.836 11.864C183.996 11.448 184.076 11.16 184.076 11C184.076 10.744 183.98 10.52 183.788 10.328C183.596 10.136 183.356 10.04 183.068 10.04H180.812C180.46 10.04 180.188 10.12 179.996 10.28C179.836 10.44 179.708 10.632 179.612 10.856L172.124 28.328L164.828 10.856C164.764 10.632 164.636 10.44 164.444 10.28C164.252 10.12 163.996 10.04 163.676 10.04H161.324C161.036 10.04 160.796 10.136 160.604 10.328C160.412 10.52 160.316 10.76 160.316 11.048C160.316 11.208 160.396 11.48 160.556 11.864L169.724 33.512L166.028 42.296C165.932 42.488 165.868 42.648 165.836 42.776C165.804 42.904 165.788 43.032 165.788 43.16C165.788 43.416 165.884 43.64 166.076 43.832ZM0.953 62.874C1.051 62.958 1.17 63 1.31 63H2.339C2.479 63 2.591 62.958 2.675 62.874C2.773 62.776 2.822 62.657 2.822 62.517V52.185L6.329 59.031C6.399 59.171 6.483 59.283 6.581 59.367C6.693 59.437 6.84 59.472 7.022 59.472H7.673C7.841 59.472 7.981 59.437 8.093 59.367C8.205 59.283 8.289 59.171 8.345 59.031L11.852 52.185V62.517C11.852 62.657 11.894 62.776 11.978 62.874C12.076 62.958 12.195 63 12.335 63H13.364C13.518 63 13.637 62.958 13.721 62.874C13.819 62.776 13.868 62.657 13.868 62.517V48.804C13.868 48.65 13.819 48.531 13.721 48.447C13.637 48.349 13.518 48.3 13.364 48.3H12.335C12.167 48.3 12.041 48.342 11.957 48.426C11.887 48.51 11.838 48.58 11.81 48.636L7.337 57.12L2.885 48.636C2.871 48.58 2.822 48.51 2.738 48.426C2.654 48.342 2.528 48.3 2.36 48.3H1.31C1.17 48.3 1.051 48.349 0.953 48.447C0.869 48.531 0.827 48.65 0.827 48.804V62.517C0.827 62.657 0.869 62.776 0.953 62.874ZM18.1299 61.887C18.9839 62.769 20.1319 63.21 21.5739 63.21C22.3019 63.21 22.9459 63.119 23.5059 62.937C24.0659 62.741 24.5419 62.496 24.9339 62.202C25.3259 61.908 25.6269 61.614 25.8369 61.32C26.0469 61.012 26.1589 60.753 26.1729 60.543C26.1869 60.403 26.1449 60.298 26.0469 60.228C25.9629 60.144 25.8509 60.102 25.7109 60.102H24.7029C24.5489 60.102 24.4369 60.123 24.3669 60.165C24.2969 60.193 24.1989 60.298 24.0729 60.48C24.0029 60.578 23.8629 60.725 23.6529 60.921C23.4429 61.103 23.1699 61.271 22.8339 61.425C22.4979 61.579 22.0779 61.656 21.5739 61.656C20.9859 61.656 20.4819 61.502 20.0619 61.194C19.6419 60.886 19.3199 60.487 19.0959 59.997C18.8719 59.493 18.7459 58.954 18.7179 58.38V58.275V58.191H25.9839C26.1239 58.191 26.2359 58.149 26.3199 58.065C26.4179 57.981 26.4669 57.862 26.4669 57.708V57.351C26.4669 56.245 26.2779 55.279 25.8999 54.453C25.5219 53.627 24.9689 52.99 24.2409 52.542C23.5269 52.094 22.6379 51.87 21.5739 51.87C20.6219 51.87 19.7889 52.073 19.0749 52.479C18.3749 52.885 17.8219 53.466 17.4159 54.222C17.0099 54.964 16.7789 55.832 16.7229 56.826C16.7089 57.008 16.7019 57.246 16.7019 57.54C16.7019 57.82 16.7089 58.051 16.7229 58.233C16.8069 59.773 17.2759 60.991 18.1299 61.887ZM24.4719 56.742H18.7179V56.679C18.7179 56.049 18.8299 55.489 19.0539 54.999C19.2779 54.509 19.5999 54.124 20.0199 53.844C20.4539 53.55 20.9719 53.403 21.5739 53.403C22.1759 53.403 22.6939 53.55 23.1279 53.844C23.5619 54.124 23.8909 54.509 24.1149 54.999C24.3529 55.489 24.4719 56.049 24.4719 56.679V56.742ZM30.8888 62.601C31.6168 63.007 32.5198 63.21 33.5978 63.21C34.6618 63.21 35.5508 63.014 36.2648 62.622C36.9788 62.216 37.5248 61.663 37.9028 60.963C38.2808 60.249 38.4908 59.437 38.5328 58.527C38.5608 58.177 38.5608 57.764 38.5328 57.288C38.4908 56.378 38.2878 55.573 37.9238 54.873C37.5738 54.173 37.0628 53.62 36.3908 53.214C35.7328 52.808 34.9208 52.605 33.9548 52.605C33.3248 52.605 32.7298 52.738 32.1698 53.004C31.6098 53.27 31.1408 53.62 30.7628 54.054C30.6913 54.1365 30.6254 54.221 30.5652 54.3074C30.5811 53.8398 30.6189 53.4264 30.6788 53.067C30.8048 52.395 31.0288 51.856 31.3508 51.45C31.6728 51.044 32.0998 50.715 32.6318 50.463C33.1638 50.197 33.8218 49.966 34.6058 49.77C35.3898 49.574 36.3068 49.343 37.3568 49.077C37.4828 49.049 37.5738 48.986 37.6298 48.888C37.6998 48.79 37.7208 48.678 37.6928 48.552L37.5248 47.691C37.5108 47.565 37.4408 47.467 37.3148 47.397C37.2028 47.327 37.0838 47.306 36.9578 47.334C35.8098 47.628 34.7878 47.908 33.8918 48.174C32.9958 48.426 32.2188 48.727 31.5608 49.077C30.9028 49.427 30.3568 49.875 29.9228 50.421C29.5028 50.953 29.1878 51.639 28.9778 52.479C28.7678 53.319 28.6628 54.376 28.6628 55.65C28.6488 56.07 28.6418 56.49 28.6418 56.91C28.6418 57.33 28.6488 57.75 28.6628 58.17C28.6908 59.178 28.8868 60.067 29.2508 60.837C29.6288 61.593 30.1748 62.181 30.8888 62.601ZM35.6978 60.837C35.1798 61.383 34.4798 61.656 33.5978 61.656C32.7298 61.656 32.0368 61.383 31.5188 60.837C31.0008 60.291 30.7208 59.493 30.6788 58.443C30.6648 58.303 30.6578 58.142 30.6578 57.96C30.6578 57.778 30.6648 57.589 30.6788 57.393C30.7208 56.329 31.0288 55.524 31.6028 54.978C32.1768 54.432 32.9048 54.159 33.7868 54.159C34.5568 54.159 35.1938 54.432 35.6978 54.978C36.2158 55.524 36.4888 56.329 36.5168 57.393C36.5308 57.589 36.5378 57.778 36.5378 57.96C36.5378 58.142 36.5308 58.303 36.5168 58.443C36.4888 59.493 36.2158 60.291 35.6978 60.837ZM40.298 62.853C40.396 62.951 40.515 63 40.655 63C41.313 63 41.88 62.86 42.356 62.58C42.846 62.3 43.245 61.866 43.553 61.278C43.875 60.676 44.113 59.899 44.267 58.947C44.421 57.981 44.498 56.826 44.498 55.482V53.76H48.278V62.517C48.278 62.657 48.32 62.776 48.404 62.874C48.488 62.958 48.6 63 48.74 63H49.748C49.888 63 50 62.958 50.084 62.874C50.182 62.776 50.231 62.657 50.231 62.517V52.563C50.231 52.423 50.182 52.311 50.084 52.227C50 52.129 49.888 52.08 49.748 52.08H43.07C42.93 52.08 42.811 52.129 42.713 52.227C42.629 52.311 42.587 52.423 42.587 52.563V55.251C42.587 56.693 42.51 57.855 42.356 58.737C42.202 59.605 41.978 60.242 41.684 60.648C41.39 61.04 41.026 61.243 40.592 61.257C40.298 61.271 40.151 61.425 40.151 61.719V62.496C40.151 62.636 40.2 62.755 40.298 62.853ZM54.2646 61.887C55.1186 62.769 56.2666 63.21 57.7086 63.21C58.4366 63.21 59.0806 63.119 59.6406 62.937C60.2006 62.741 60.6766 62.496 61.0686 62.202C61.4606 61.908 61.7616 61.614 61.9716 61.32C62.1816 61.012 62.2936 60.753 62.3076 60.543C62.3216 60.403 62.2796 60.298 62.1816 60.228C62.0976 60.144 61.9856 60.102 61.8456 60.102H60.8376C60.6836 60.102 60.5716 60.123 60.5016 60.165C60.4316 60.193 60.3336 60.298 60.2076 60.48C60.1376 60.578 59.9976 60.725 59.7876 60.921C59.5776 61.103 59.3046 61.271 58.9686 61.425C58.6326 61.579 58.2126 61.656 57.7086 61.656C57.1206 61.656 56.6166 61.502 56.1966 61.194C55.7766 60.886 55.4546 60.487 55.2306 59.997C55.0066 59.493 54.8806 58.954 54.8526 58.38V58.275V58.191H62.1186C62.2586 58.191 62.3706 58.149 62.4546 58.065C62.5526 57.981 62.6016 57.862 62.6016 57.708V57.351C62.6016 56.245 62.4126 55.279 62.0346 54.453C61.6566 53.627 61.1036 52.99 60.3756 52.542C59.6616 52.094 58.7726 51.87 57.7086 51.87C56.7566 51.87 55.9236 52.073 55.2096 52.479C54.5096 52.885 53.9566 53.466 53.5506 54.222C53.1446 54.964 52.9136 55.832 52.8576 56.826C52.8436 57.008 52.8366 57.246 52.8366 57.54C52.8366 57.82 52.8436 58.051 52.8576 58.233C52.9416 59.773 53.4106 60.991 54.2646 61.887ZM60.6066 56.742H54.8526V56.679C54.8526 56.049 54.9646 55.489 55.1886 54.999C55.4126 54.509 55.7346 54.124 56.1546 53.844C56.5886 53.55 57.1066 53.403 57.7086 53.403C58.3106 53.403 58.8286 53.55 59.2626 53.844C59.6966 54.124 60.0256 54.509 60.2496 54.999C60.4876 55.489 60.6066 56.049 60.6066 56.679V56.742ZM65.2386 62.874C65.3366 62.958 65.4556 63 65.5956 63H70.1316C71.4056 63 72.3996 62.734 73.1136 62.202C73.8276 61.67 74.1846 60.9 74.1846 59.892C74.1846 59.36 74.0446 58.849 73.7646 58.359C73.4986 57.855 73.0996 57.491 72.5676 57.267C73.0016 57.043 73.3376 56.77 73.5756 56.448C73.8136 56.126 73.9326 55.65 73.9326 55.02C73.9326 54.124 73.5966 53.41 72.9246 52.878C72.2666 52.346 71.2796 52.08 69.9636 52.08H65.5956C65.4556 52.08 65.3366 52.129 65.2386 52.227C65.1546 52.311 65.1126 52.423 65.1126 52.563V62.517C65.1126 62.657 65.1546 62.776 65.2386 62.874ZM69.9636 61.467H67.0446V58.275H69.9636C70.7056 58.275 71.2656 58.408 71.6436 58.674C72.0216 58.926 72.2106 59.332 72.2106 59.892C72.2106 60.424 72.0006 60.823 71.5806 61.089C71.1746 61.341 70.6356 61.467 69.9636 61.467ZM69.8376 56.721H67.0446V53.613H69.8376C70.5096 53.613 71.0416 53.718 71.4336 53.928C71.8396 54.124 72.0426 54.495 72.0426 55.041C72.0426 55.573 71.8396 55.986 71.4336 56.28C71.0416 56.574 70.5096 56.721 69.8376 56.721ZM78.0181 62.79C78.5921 63.07 79.2291 63.21 79.9291 63.21C80.6011 63.21 81.1681 63.133 81.6301 62.979C82.0921 62.811 82.4771 62.608 82.7851 62.37C83.0931 62.118 83.3381 61.866 83.5201 61.614V62.517C83.5201 62.657 83.5621 62.776 83.6461 62.874C83.7301 62.958 83.8491 63 84.0031 63H84.9691C85.1091 63 85.2211 62.958 85.3051 62.874C85.4031 62.776 85.4521 62.657 85.4521 62.517V55.713C85.4521 55.237 85.3751 54.768 85.2211 54.306C85.0811 53.844 84.8431 53.431 84.5071 53.067C84.1851 52.703 83.7371 52.416 83.1631 52.206C82.5891 51.982 81.8821 51.87 81.0421 51.87C80.2861 51.87 79.6421 51.975 79.1101 52.185C78.5921 52.381 78.1651 52.626 77.8291 52.92C77.4931 53.214 77.2411 53.515 77.0731 53.823C76.9191 54.131 76.8421 54.39 76.8421 54.6C76.8421 54.726 76.8771 54.838 76.9471 54.936C77.0311 55.02 77.1501 55.062 77.3041 55.062H78.2491C78.4591 55.062 78.6061 54.957 78.6901 54.747C78.8441 54.355 79.1101 54.033 79.4881 53.781C79.8801 53.529 80.3911 53.403 81.0211 53.403C81.8891 53.403 82.5121 53.592 82.8901 53.97C83.2821 54.348 83.4781 54.873 83.4781 55.545V56.154L80.3491 56.595C79.0891 56.777 78.0671 57.155 77.2831 57.729C76.4991 58.303 76.1071 59.073 76.1071 60.039C76.1071 60.641 76.2821 61.18 76.6321 61.656C76.9821 62.132 77.4441 62.51 78.0181 62.79ZM81.9451 61.278C81.4691 61.516 80.9441 61.635 80.3701 61.635C79.9921 61.635 79.6211 61.572 79.2571 61.446C78.9071 61.32 78.6131 61.131 78.3751 60.879C78.1511 60.613 78.0391 60.284 78.0391 59.892C78.0391 59.388 78.2911 58.975 78.7951 58.653C79.2991 58.317 80.0481 58.079 81.0421 57.939L83.4781 57.582V58.17C83.4781 58.954 83.3381 59.605 83.0581 60.123C82.7921 60.641 82.4211 61.026 81.9451 61.278ZM93.7445 62.874C93.8425 62.958 93.9615 63 94.1015 63H95.0885C95.2285 63 95.3405 62.958 95.4245 62.874C95.5225 62.776 95.5715 62.657 95.5715 62.517V58.296H97.5035L100.59 62.685C100.66 62.783 100.737 62.86 100.821 62.916C100.905 62.972 101.01 63 101.136 63H102.417C102.543 63 102.641 62.972 102.711 62.916C102.795 62.86 102.837 62.776 102.837 62.664C102.837 62.566 102.802 62.475 102.732 62.391L99.1625 57.309L102.312 52.668C102.34 52.626 102.361 52.584 102.375 52.542C102.403 52.486 102.417 52.444 102.417 52.416C102.417 52.304 102.375 52.22 102.291 52.164C102.207 52.108 102.102 52.08 101.976 52.08H100.884C100.744 52.08 100.632 52.108 100.548 52.164C100.464 52.22 100.387 52.297 100.317 52.395L97.4825 56.595H95.5715V52.563C95.5715 52.423 95.5225 52.311 95.4245 52.227C95.3405 52.129 95.2285 52.08 95.0885 52.08H94.1015C93.9615 52.08 93.8425 52.129 93.7445 52.227C93.6605 52.311 93.6185 52.423 93.6185 52.563V62.517C93.6185 62.657 93.6605 62.776 93.7445 62.874ZM106.683 62.601C107.397 63.007 108.286 63.21 109.35 63.21C110.414 63.21 111.303 63.007 112.017 62.601C112.731 62.195 113.277 61.635 113.655 60.921C114.033 60.193 114.243 59.367 114.285 58.443C114.299 58.205 114.306 57.904 114.306 57.54C114.306 57.162 114.299 56.861 114.285 56.637C114.243 55.699 114.026 54.873 113.634 54.159C113.256 53.445 112.71 52.885 111.996 52.479C111.282 52.073 110.4 51.87 109.35 51.87C108.3 51.87 107.418 52.073 106.704 52.479C105.99 52.885 105.437 53.445 105.045 54.159C104.667 54.873 104.457 55.699 104.415 56.637C104.401 56.861 104.394 57.162 104.394 57.54C104.394 57.904 104.401 58.205 104.415 58.443C104.457 59.367 104.667 60.193 105.045 60.921C105.423 61.635 105.969 62.195 106.683 62.601ZM111.429 60.774C110.911 61.32 110.218 61.593 109.35 61.593C108.482 61.593 107.782 61.32 107.25 60.774C106.732 60.214 106.459 59.402 106.431 58.338C106.417 58.128 106.41 57.862 106.41 57.54C106.41 57.218 106.417 56.952 106.431 56.742C106.459 55.678 106.732 54.873 107.25 54.327C107.782 53.767 108.482 53.487 109.35 53.487C110.218 53.487 110.911 53.767 111.429 54.327C111.947 54.873 112.227 55.678 112.269 56.742C112.283 56.952 112.29 57.218 112.29 57.54C112.29 57.862 112.283 58.128 112.269 58.338C112.227 59.402 111.947 60.214 111.429 60.774ZM117.062 62.874C117.146 62.958 117.258 63 117.398 63H118.427C118.567 63 118.679 62.958 118.763 62.874C118.847 62.79 118.889 62.678 118.889 62.538V55.7652L121.556 60.711C121.64 60.851 121.731 60.977 121.829 61.089C121.927 61.201 122.067 61.257 122.249 61.257H122.795C122.991 61.257 123.138 61.201 123.236 61.089C123.334 60.977 123.418 60.851 123.488 60.711L126.176 55.6318V62.538C126.176 62.678 126.218 62.79 126.302 62.874C126.386 62.958 126.498 63 126.638 63H127.667C127.793 63 127.898 62.958 127.982 62.874C128.066 62.79 128.108 62.678 128.108 62.538V52.479C128.108 52.367 128.066 52.276 127.982 52.206C127.898 52.122 127.8 52.08 127.688 52.08H126.638C126.414 52.08 126.239 52.192 126.113 52.416L122.522 59.094L118.952 52.416C118.826 52.192 118.651 52.08 118.427 52.08H117.356C117.258 52.08 117.16 52.122 117.062 52.206C116.978 52.276 116.936 52.367 116.936 52.479V62.538C116.936 62.678 116.978 62.79 117.062 62.874ZM131.376 62.874C131.474 62.958 131.593 63 131.733 63H132.741C132.881 63 132.993 62.958 133.077 62.874C133.161 62.776 133.203 62.657 133.203 62.517V53.76H138.6V62.517C138.6 62.657 138.642 62.776 138.726 62.874C138.81 62.958 138.922 63 139.062 63H140.07C140.21 63 140.322 62.958 140.406 62.874C140.504 62.776 140.553 62.657 140.553 62.517V52.563C140.553 52.423 140.504 52.311 140.406 52.227C140.322 52.129 140.21 52.08 140.07 52.08H131.733C131.593 52.08 131.474 52.129 131.376 52.227C131.292 52.311 131.25 52.423 131.25 52.563V62.517C131.25 62.657 131.292 62.776 131.376 62.874ZM144.812 62.79C145.386 63.07 146.023 63.21 146.723 63.21C147.395 63.21 147.962 63.133 148.424 62.979C148.886 62.811 149.271 62.608 149.579 62.37C149.887 62.118 150.132 61.866 150.314 61.614V62.517C150.314 62.657 150.356 62.776 150.44 62.874C150.524 62.958 150.643 63 150.797 63H151.763C151.903 63 152.015 62.958 152.099 62.874C152.197 62.776 152.246 62.657 152.246 62.517V55.713C152.246 55.237 152.169 54.768 152.015 54.306C151.875 53.844 151.637 53.431 151.301 53.067C150.979 52.703 150.531 52.416 149.957 52.206C149.383 51.982 148.676 51.87 147.836 51.87C147.08 51.87 146.436 51.975 145.904 52.185C145.386 52.381 144.959 52.626 144.623 52.92C144.287 53.214 144.035 53.515 143.867 53.823C143.713 54.131 143.636 54.39 143.636 54.6C143.636 54.726 143.671 54.838 143.741 54.936C143.825 55.02 143.944 55.062 144.098 55.062H145.043C145.253 55.062 145.4 54.957 145.484 54.747C145.638 54.355 145.904 54.033 146.282 53.781C146.674 53.529 147.185 53.403 147.815 53.403C148.683 53.403 149.306 53.592 149.684 53.97C150.076 54.348 150.272 54.873 150.272 55.545V56.154L147.143 56.595C145.883 56.777 144.861 57.155 144.077 57.729C143.293 58.303 142.901 59.073 142.901 60.039C142.901 60.641 143.076 61.18 143.426 61.656C143.776 62.132 144.238 62.51 144.812 62.79ZM148.739 61.278C148.263 61.516 147.738 61.635 147.164 61.635C146.786 61.635 146.415 61.572 146.051 61.446C145.701 61.32 145.407 61.131 145.169 60.879C144.945 60.613 144.833 60.284 144.833 59.892C144.833 59.388 145.085 58.975 145.589 58.653C146.093 58.317 146.842 58.079 147.836 57.939L150.272 57.582V58.17C150.272 58.954 150.132 59.605 149.852 60.123C149.586 60.641 149.215 61.026 148.739 61.278ZM155.391 62.874C155.489 62.958 155.608 63 155.748 63H156.756C156.896 63 157.008 62.958 157.092 62.874C157.176 62.776 157.218 62.657 157.218 62.517V58.275H162.951V62.517C162.951 62.657 162.993 62.776 163.077 62.874C163.175 62.958 163.294 63 163.434 63H164.421C164.561 63 164.673 62.958 164.757 62.874C164.855 62.776 164.904 62.657 164.904 62.517V52.563C164.904 52.423 164.855 52.311 164.757 52.227C164.673 52.129 164.561 52.08 164.421 52.08H163.434C163.294 52.08 163.175 52.129 163.077 52.227C162.993 52.311 162.951 52.423 162.951 52.563V56.595H157.218V52.563C157.218 52.423 157.176 52.311 157.092 52.227C157.008 52.129 156.896 52.08 156.756 52.08H155.748C155.608 52.08 155.489 52.129 155.391 52.227C155.307 52.311 155.265 52.423 155.265 52.563V62.517C155.265 62.657 155.307 62.776 155.391 62.874ZM168.188 62.874C168.286 62.958 168.405 63 168.545 63H169.553C169.693 63 169.805 62.958 169.889 62.874C169.973 62.776 170.015 62.657 170.015 62.517V52.563C170.015 52.423 169.973 52.311 169.889 52.227C169.805 52.129 169.693 52.08 169.553 52.08H168.545C168.405 52.08 168.286 52.129 168.188 52.227C168.104 52.311 168.062 52.423 168.062 52.563V62.517C168.062 62.657 168.104 62.776 168.188 62.874ZM168.02 49.917C168.118 50.001 168.237 50.043 168.377 50.043H169.7C169.84 50.043 169.952 50.001 170.036 49.917C170.134 49.819 170.183 49.7 170.183 49.56V48.426C170.183 48.286 170.134 48.174 170.036 48.09C169.952 47.992 169.84 47.943 169.7 47.943H168.377C168.237 47.943 168.118 47.992 168.02 48.09C167.936 48.174 167.894 48.286 167.894 48.426V49.56C167.894 49.7 167.936 49.819 168.02 49.917ZM179.595 62.874C179.679 62.958 179.798 63 179.952 63H180.96C181.1 63 181.212 62.958 181.296 62.874C181.394 62.776 181.443 62.657 181.443 62.517V52.563C181.443 52.423 181.394 52.311 181.296 52.227C181.212 52.129 181.1 52.08 180.96 52.08H177.348C175.948 52.08 174.898 52.36 174.198 52.92C173.512 53.48 173.169 54.348 173.169 55.524C173.169 56.532 173.484 57.365 174.114 58.023C174.437 58.3458 174.844 58.5877 175.336 58.7487L173.001 62.202C172.945 62.272 172.903 62.342 172.875 62.412C172.861 62.468 172.854 62.524 172.854 62.58C172.854 62.692 172.896 62.79 172.98 62.874C173.064 62.958 173.169 63 173.295 63H174.303C174.415 63 174.52 62.965 174.618 62.895C174.716 62.825 174.793 62.755 174.849 62.685L177.224 59.094H179.469V62.517C179.469 62.657 179.511 62.776 179.595 62.874ZM179.49 57.519H177.117C176.389 57.519 175.85 57.33 175.5 56.952C175.164 56.574 174.996 56.098 174.996 55.524C174.996 54.824 175.178 54.341 175.542 54.075C175.92 53.795 176.501 53.655 177.285 53.655H179.49V57.519Z" fill="black"/>
</svg>
