<svg width="193" height="83" viewBox="0 0 193 83" fill="none" xmlns="http://www.w3.org/2000/svg">
<path d="M14.976 45.48C12.192 45.48 9.856 45.064 7.968 44.232C6.08 43.368 4.624 42.264 3.6 40.92C2.608 39.544 2.08 38.088 2.016 36.552C2.016 36.296 2.112 36.072 2.304 35.88C2.528 35.656 2.784 35.544 3.072 35.544H5.52C5.904 35.544 6.192 35.64 6.384 35.832C6.576 36.024 6.704 36.248 6.768 36.504C6.928 37.272 7.312 38.04 7.92 38.808C8.56 39.544 9.44 40.168 10.56 40.68C11.712 41.16 13.184 41.4 14.976 41.4C17.728 41.4 19.744 40.92 21.024 39.96C22.336 38.968 22.992 37.656 22.992 36.024C22.992 34.904 22.64 34.008 21.936 33.336C21.264 32.632 20.224 32.008 18.816 31.464C17.408 30.92 15.584 30.328 13.344 29.688C11.008 29.016 9.072 28.28 7.536 27.48C6 26.68 4.848 25.688 4.08 24.504C3.344 23.32 2.976 21.816 2.976 19.992C2.976 18.264 3.44 16.728 4.368 15.384C5.296 14.008 6.624 12.92 8.352 12.12C10.112 11.32 12.24 10.92 14.736 10.92C16.72 10.92 18.448 11.192 19.92 11.736C21.424 12.248 22.672 12.952 23.664 13.848C24.656 14.712 25.408 15.656 25.92 16.68C26.432 17.672 26.704 18.648 26.736 19.608C26.736 19.832 26.656 20.056 26.496 20.28C26.336 20.472 26.08 20.568 25.728 20.568H23.184C22.96 20.568 22.72 20.504 22.464 20.376C22.24 20.248 22.064 20.008 21.936 19.656C21.744 18.344 21.008 17.24 19.728 16.344C18.448 15.448 16.784 15 14.736 15C12.656 15 10.96 15.4 9.648 16.2C8.368 17 7.728 18.248 7.728 19.944C7.728 21.032 8.032 21.944 8.64 22.68C9.248 23.384 10.208 24.008 11.52 24.552C12.832 25.096 14.544 25.672 16.656 26.28C19.216 26.984 21.312 27.736 22.944 28.536C24.576 29.304 25.776 30.28 26.544 31.464C27.344 32.616 27.744 34.104 27.744 35.928C27.744 37.944 27.216 39.672 26.16 41.112C25.104 42.52 23.616 43.608 21.696 44.376C19.808 45.112 17.568 45.48 14.976 45.48ZM43.3474 45.48C40.0514 45.48 37.4274 44.472 35.4754 42.456C33.5234 40.408 32.4514 37.624 32.2594 34.104C32.2274 33.688 32.2114 33.16 32.2114 32.52C32.2114 31.848 32.2274 31.304 32.2594 30.888C32.3874 28.616 32.9154 26.632 33.8434 24.936C34.7714 23.208 36.0354 21.88 37.6354 20.952C39.2674 20.024 41.1714 19.56 43.3474 19.56C45.7794 19.56 47.8114 20.072 49.4434 21.096C51.1074 22.12 52.3714 23.576 53.2354 25.464C54.0994 27.352 54.5314 29.56 54.5314 32.088V32.904C54.5314 33.256 54.4194 33.528 54.1954 33.72C54.0034 33.912 53.7474 34.008 53.4274 34.008H36.8194C36.8194 34.04 36.8194 34.104 36.8194 34.2C36.8194 34.296 36.8194 34.376 36.8194 34.44C36.8834 35.752 37.1714 36.984 37.6834 38.136C38.1954 39.256 38.9314 40.168 39.8914 40.872C40.8514 41.576 42.0034 41.928 43.3474 41.928C44.4994 41.928 45.4594 41.752 46.2274 41.4C46.9954 41.048 47.6194 40.664 48.0994 40.248C48.5794 39.8 48.8994 39.464 49.0594 39.24C49.3474 38.824 49.5714 38.584 49.7314 38.52C49.8914 38.424 50.1474 38.376 50.4994 38.376H52.8034C53.1234 38.376 53.3794 38.472 53.5714 38.664C53.7954 38.824 53.8914 39.064 53.8594 39.384C53.8274 39.864 53.5714 40.456 53.0914 41.16C52.6114 41.832 51.9234 42.504 51.0274 43.176C50.1314 43.848 49.0434 44.408 47.7634 44.856C46.4834 45.272 45.0114 45.48 43.3474 45.48ZM36.8194 30.696H49.9714V30.552C49.9714 29.112 49.6994 27.832 49.1554 26.712C48.6434 25.592 47.8914 24.712 46.8994 24.072C45.9074 23.4 44.7234 23.064 43.3474 23.064C41.9714 23.064 40.7874 23.4 39.7954 24.072C38.8354 24.712 38.0994 25.592 37.5874 26.712C37.0754 27.832 36.8194 29.112 36.8194 30.552V30.696ZM61.3748 45C61.0548 45 60.7828 44.904 60.5588 44.712C60.3668 44.488 60.2708 44.216 60.2708 43.896V21.192C60.2708 20.872 60.3668 20.6 60.5588 20.376C60.7828 20.152 61.0548 20.04 61.3748 20.04H63.5828C63.9028 20.04 64.1748 20.152 64.3988 20.376C64.6228 20.6 64.7348 20.872 64.7348 21.192V23.304C65.3748 22.216 66.2548 21.4 67.3748 20.856C68.4948 20.312 69.8388 20.04 71.4068 20.04H73.3268C73.6468 20.04 73.9028 20.152 74.0948 20.376C74.2868 20.568 74.3828 20.824 74.3828 21.144V23.112C74.3828 23.432 74.2868 23.688 74.0948 23.88C73.9028 24.072 73.6468 24.168 73.3268 24.168H70.4468C68.7188 24.168 67.3588 24.68 66.3668 25.704C65.3748 26.696 64.8788 28.056 64.8788 29.784V43.896C64.8788 44.216 64.7668 44.488 64.5428 44.712C64.3188 44.904 64.0468 45 63.7268 45H61.3748ZM87.9724 45.48C84.6764 45.48 82.0524 44.472 80.1004 42.456C78.1484 40.408 77.0764 37.624 76.8844 34.104C76.8524 33.688 76.8364 33.16 76.8364 32.52C76.8364 31.848 76.8524 31.304 76.8844 30.888C77.0124 28.616 77.5404 26.632 78.4684 24.936C79.3964 23.208 80.6604 21.88 82.2604 20.952C83.8924 20.024 85.7964 19.56 87.9724 19.56C90.4044 19.56 92.4364 20.072 94.0684 21.096C95.7324 22.12 96.9964 23.576 97.8604 25.464C98.7244 27.352 99.1564 29.56 99.1564 32.088V32.904C99.1564 33.256 99.0444 33.528 98.8204 33.72C98.6284 33.912 98.3724 34.008 98.0524 34.008H81.4444C81.4444 34.04 81.4444 34.104 81.4444 34.2C81.4444 34.296 81.4444 34.376 81.4444 34.44C81.5084 35.752 81.7964 36.984 82.3084 38.136C82.8204 39.256 83.5564 40.168 84.5164 40.872C85.4764 41.576 86.6284 41.928 87.9724 41.928C89.1244 41.928 90.0844 41.752 90.8524 41.4C91.6204 41.048 92.2444 40.664 92.7244 40.248C93.2044 39.8 93.5244 39.464 93.6844 39.24C93.9724 38.824 94.1964 38.584 94.3564 38.52C94.5164 38.424 94.7724 38.376 95.1244 38.376H97.4284C97.7484 38.376 98.0044 38.472 98.1964 38.664C98.4204 38.824 98.5164 39.064 98.4844 39.384C98.4524 39.864 98.1964 40.456 97.7164 41.16C97.2364 41.832 96.5484 42.504 95.6524 43.176C94.7564 43.848 93.6684 44.408 92.3884 44.856C91.1084 45.272 89.6364 45.48 87.9724 45.48ZM81.4444 30.696H94.5964V30.552C94.5964 29.112 94.3244 27.832 93.7804 26.712C93.2684 25.592 92.5164 24.712 91.5244 24.072C90.5324 23.4 89.3484 23.064 87.9724 23.064C86.5964 23.064 85.4124 23.4 84.4204 24.072C83.4604 24.712 82.7244 25.592 82.2124 26.712C81.7004 27.832 81.4444 29.112 81.4444 30.552V30.696ZM106 45C105.68 45 105.408 44.904 105.184 44.712C104.992 44.488 104.896 44.216 104.896 43.896V21.144C104.896 20.824 104.992 20.568 105.184 20.376C105.408 20.152 105.68 20.04 106 20.04H108.256C108.576 20.04 108.832 20.152 109.024 20.376C109.248 20.568 109.36 20.824 109.36 21.144V23.256C110.192 22.168 111.232 21.288 112.48 20.616C113.76 19.912 115.392 19.56 117.376 19.56C119.456 19.56 121.216 20.024 122.656 20.952C124.128 21.848 125.232 23.112 125.968 24.744C126.704 26.344 127.072 28.216 127.072 30.36V43.896C127.072 44.216 126.976 44.488 126.784 44.712C126.592 44.904 126.336 45 126.016 45H123.616C123.296 45 123.024 44.904 122.8 44.712C122.608 44.488 122.512 44.216 122.512 43.896V30.6C122.512 28.36 121.968 26.616 120.88 25.368C119.792 24.088 118.192 23.448 116.08 23.448C114.096 23.448 112.496 24.088 111.28 25.368C110.096 26.616 109.504 28.36 109.504 30.6V43.896C109.504 44.216 109.392 44.488 109.168 44.712C108.976 44.904 108.72 45 108.4 45H106ZM135.109 45C134.789 45 134.517 44.904 134.293 44.712C134.101 44.488 134.005 44.216 134.005 43.896V21.144C134.005 20.824 134.101 20.568 134.293 20.376C134.517 20.152 134.789 20.04 135.109 20.04H137.413C137.733 20.04 137.989 20.152 138.181 20.376C138.373 20.568 138.469 20.824 138.469 21.144V43.896C138.469 44.216 138.373 44.488 138.181 44.712C137.989 44.904 137.733 45 137.413 45H135.109ZM134.725 15.384C134.405 15.384 134.133 15.288 133.909 15.096C133.717 14.872 133.621 14.6 133.621 14.28V11.688C133.621 11.368 133.717 11.112 133.909 10.92C134.133 10.696 134.405 10.584 134.725 10.584H137.749C138.069 10.584 138.325 10.696 138.517 10.92C138.741 11.112 138.853 11.368 138.853 11.688V14.28C138.853 14.6 138.741 14.872 138.517 15.096C138.325 15.288 138.069 15.384 137.749 15.384H134.725ZM155.374 45C153.582 45 152.126 44.664 151.006 43.992C149.886 43.288 149.07 42.312 148.558 41.064C148.046 39.784 147.79 38.28 147.79 36.552V23.88H144.046C143.726 23.88 143.454 23.784 143.23 23.592C143.038 23.368 142.942 23.096 142.942 22.776V21.144C142.942 20.824 143.038 20.568 143.23 20.376C143.454 20.152 143.726 20.04 144.046 20.04H147.79V12.024C147.79 11.704 147.886 11.448 148.078 11.256C148.302 11.032 148.574 10.92 148.894 10.92H151.15C151.47 10.92 151.726 11.032 151.918 11.256C152.142 11.448 152.254 11.704 152.254 12.024V20.04H158.206C158.526 20.04 158.782 20.152 158.974 20.376C159.198 20.568 159.31 20.824 159.31 21.144V22.776C159.31 23.096 159.198 23.368 158.974 23.592C158.782 23.784 158.526 23.88 158.206 23.88H152.254V36.216C152.254 37.72 152.51 38.904 153.022 39.768C153.534 40.632 154.446 41.064 155.758 41.064H158.686C159.006 41.064 159.262 41.176 159.454 41.4C159.678 41.592 159.79 41.848 159.79 42.168V43.896C159.79 44.216 159.678 44.488 159.454 44.712C159.262 44.904 159.006 45 158.686 45H155.374ZM168.748 54.12C168.492 54.12 168.268 54.024 168.076 53.832C167.884 53.64 167.788 53.416 167.788 53.16C167.788 53.032 167.804 52.904 167.836 52.776C167.868 52.648 167.932 52.488 168.028 52.296L171.724 43.512L162.556 21.864C162.396 21.48 162.316 21.208 162.316 21.048C162.316 20.76 162.412 20.52 162.604 20.328C162.796 20.136 163.036 20.04 163.324 20.04H165.676C165.996 20.04 166.252 20.12 166.444 20.28C166.636 20.44 166.764 20.632 166.828 20.856L174.124 38.328L181.612 20.856C181.708 20.632 181.836 20.44 181.996 20.28C182.188 20.12 182.46 20.04 182.812 20.04H185.068C185.356 20.04 185.596 20.136 185.788 20.328C185.98 20.52 186.076 20.744 186.076 21C186.076 21.16 185.996 21.448 185.836 21.864L172.204 53.304C172.108 53.528 171.964 53.72 171.772 53.88C171.612 54.04 171.356 54.12 171.004 54.12H168.748Z" fill="white"/>
<path d="M3.31 73C3.17 73 3.051 72.958 2.953 72.874C2.869 72.776 2.827 72.657 2.827 72.517V58.804C2.827 58.65 2.869 58.531 2.953 58.447C3.051 58.349 3.17 58.3 3.31 58.3H4.36C4.528 58.3 4.654 58.342 4.738 58.426C4.822 58.51 4.871 58.58 4.885 58.636L9.337 67.12L13.81 58.636C13.838 58.58 13.887 58.51 13.957 58.426C14.041 58.342 14.167 58.3 14.335 58.3H15.364C15.518 58.3 15.637 58.349 15.721 58.447C15.819 58.531 15.868 58.65 15.868 58.804V72.517C15.868 72.657 15.819 72.776 15.721 72.874C15.637 72.958 15.518 73 15.364 73H14.335C14.195 73 14.076 72.958 13.978 72.874C13.894 72.776 13.852 72.657 13.852 72.517V62.185L10.345 69.031C10.289 69.171 10.205 69.283 10.093 69.367C9.981 69.437 9.841 69.472 9.673 69.472H9.022C8.84 69.472 8.693 69.437 8.581 69.367C8.483 69.283 8.399 69.171 8.329 69.031L4.822 62.185V72.517C4.822 72.657 4.773 72.776 4.675 72.874C4.591 72.958 4.479 73 4.339 73H3.31ZM23.5739 73.21C22.1319 73.21 20.9839 72.769 20.1299 71.887C19.2759 70.991 18.8069 69.773 18.7229 68.233C18.7089 68.051 18.7019 67.82 18.7019 67.54C18.7019 67.246 18.7089 67.008 18.7229 66.826C18.7789 65.832 19.0099 64.964 19.4159 64.222C19.8219 63.466 20.3749 62.885 21.0749 62.479C21.7889 62.073 22.6219 61.87 23.5739 61.87C24.6379 61.87 25.5269 62.094 26.2409 62.542C26.9689 62.99 27.5219 63.627 27.8999 64.453C28.2779 65.279 28.4669 66.245 28.4669 67.351V67.708C28.4669 67.862 28.4179 67.981 28.3199 68.065C28.2359 68.149 28.1239 68.191 27.9839 68.191H20.7179C20.7179 68.205 20.7179 68.233 20.7179 68.275C20.7179 68.317 20.7179 68.352 20.7179 68.38C20.7459 68.954 20.8719 69.493 21.0959 69.997C21.3199 70.487 21.6419 70.886 22.0619 71.194C22.4819 71.502 22.9859 71.656 23.5739 71.656C24.0779 71.656 24.4979 71.579 24.8339 71.425C25.1699 71.271 25.4429 71.103 25.6529 70.921C25.8629 70.725 26.0029 70.578 26.0729 70.48C26.1989 70.298 26.2969 70.193 26.3669 70.165C26.4369 70.123 26.5489 70.102 26.7029 70.102H27.7109C27.8509 70.102 27.9629 70.144 28.0469 70.228C28.1449 70.298 28.1869 70.403 28.1729 70.543C28.1589 70.753 28.0469 71.012 27.8369 71.32C27.6269 71.614 27.3259 71.908 26.9339 72.202C26.5419 72.496 26.0659 72.741 25.5059 72.937C24.9459 73.119 24.3019 73.21 23.5739 73.21ZM20.7179 66.742H26.4719V66.679C26.4719 66.049 26.3529 65.489 26.1149 64.999C25.8909 64.509 25.5619 64.124 25.1279 63.844C24.6939 63.55 24.1759 63.403 23.5739 63.403C22.9719 63.403 22.4539 63.55 22.0199 63.844C21.5999 64.124 21.2779 64.509 21.0539 64.999C20.8299 65.489 20.7179 66.049 20.7179 66.679V66.742ZM35.5978 73.21C34.5198 73.21 33.6168 73.007 32.8888 72.601C32.1748 72.181 31.6288 71.593 31.2508 70.837C30.8868 70.067 30.6908 69.178 30.6628 68.17C30.6488 67.75 30.6418 67.33 30.6418 66.91C30.6418 66.49 30.6488 66.07 30.6628 65.65C30.6628 64.376 30.7678 63.319 30.9778 62.479C31.1878 61.639 31.5028 60.953 31.9228 60.421C32.3568 59.875 32.9028 59.427 33.5608 59.077C34.2188 58.727 34.9958 58.426 35.8918 58.174C36.7878 57.908 37.8098 57.628 38.9578 57.334C39.0838 57.306 39.2028 57.327 39.3148 57.397C39.4408 57.467 39.5108 57.565 39.5248 57.691L39.6928 58.552C39.7208 58.678 39.6998 58.79 39.6298 58.888C39.5738 58.986 39.4828 59.049 39.3568 59.077C38.3068 59.343 37.3898 59.574 36.6058 59.77C35.8218 59.966 35.1638 60.197 34.6318 60.463C34.0998 60.715 33.6728 61.044 33.3508 61.45C33.0288 61.856 32.8048 62.395 32.6788 63.067C32.5668 63.739 32.5318 64.6 32.5738 65.65L32.1118 65.461C32.1818 64.943 32.3988 64.474 32.7628 64.054C33.1408 63.62 33.6098 63.27 34.1698 63.004C34.7298 62.738 35.3248 62.605 35.9548 62.605C36.9208 62.605 37.7328 62.808 38.3908 63.214C39.0628 63.62 39.5738 64.173 39.9238 64.873C40.2878 65.573 40.4908 66.378 40.5328 67.288C40.5608 67.764 40.5608 68.177 40.5328 68.527C40.4908 69.437 40.2808 70.249 39.9028 70.963C39.5248 71.663 38.9788 72.216 38.2648 72.622C37.5508 73.014 36.6618 73.21 35.5978 73.21ZM35.5978 71.656C36.4798 71.656 37.1798 71.383 37.6978 70.837C38.2158 70.291 38.4888 69.493 38.5168 68.443C38.5308 68.303 38.5378 68.142 38.5378 67.96C38.5378 67.778 38.5308 67.589 38.5168 67.393C38.4888 66.329 38.2158 65.524 37.6978 64.978C37.1938 64.432 36.5568 64.159 35.7868 64.159C34.9048 64.159 34.1768 64.432 33.6028 64.978C33.0288 65.524 32.7208 66.329 32.6788 67.393C32.6648 67.589 32.6578 67.778 32.6578 67.96C32.6578 68.142 32.6648 68.303 32.6788 68.443C32.7208 69.493 33.0008 70.291 33.5188 70.837C34.0368 71.383 34.7298 71.656 35.5978 71.656ZM42.655 73C42.515 73 42.396 72.951 42.298 72.853C42.2 72.755 42.151 72.636 42.151 72.496V71.719C42.151 71.425 42.298 71.271 42.592 71.257C43.026 71.243 43.39 71.04 43.684 70.648C43.978 70.242 44.202 69.605 44.356 68.737C44.51 67.855 44.587 66.693 44.587 65.251V62.563C44.587 62.423 44.629 62.311 44.713 62.227C44.811 62.129 44.93 62.08 45.07 62.08H51.748C51.888 62.08 52 62.129 52.084 62.227C52.182 62.311 52.231 62.423 52.231 62.563V72.517C52.231 72.657 52.182 72.776 52.084 72.874C52 72.958 51.888 73 51.748 73H50.74C50.6 73 50.488 72.958 50.404 72.874C50.32 72.776 50.278 72.657 50.278 72.517V63.76H46.498V65.482C46.498 66.826 46.421 67.981 46.267 68.947C46.113 69.899 45.875 70.676 45.553 71.278C45.245 71.866 44.846 72.3 44.356 72.58C43.88 72.86 43.313 73 42.655 73ZM59.7086 73.21C58.2666 73.21 57.1186 72.769 56.2646 71.887C55.4106 70.991 54.9416 69.773 54.8576 68.233C54.8436 68.051 54.8366 67.82 54.8366 67.54C54.8366 67.246 54.8436 67.008 54.8576 66.826C54.9136 65.832 55.1446 64.964 55.5506 64.222C55.9566 63.466 56.5096 62.885 57.2096 62.479C57.9236 62.073 58.7566 61.87 59.7086 61.87C60.7726 61.87 61.6616 62.094 62.3756 62.542C63.1036 62.99 63.6566 63.627 64.0346 64.453C64.4126 65.279 64.6016 66.245 64.6016 67.351V67.708C64.6016 67.862 64.5526 67.981 64.4546 68.065C64.3706 68.149 64.2586 68.191 64.1186 68.191H56.8526C56.8526 68.205 56.8526 68.233 56.8526 68.275C56.8526 68.317 56.8526 68.352 56.8526 68.38C56.8806 68.954 57.0066 69.493 57.2306 69.997C57.4546 70.487 57.7766 70.886 58.1966 71.194C58.6166 71.502 59.1206 71.656 59.7086 71.656C60.2126 71.656 60.6326 71.579 60.9686 71.425C61.3046 71.271 61.5776 71.103 61.7876 70.921C61.9976 70.725 62.1376 70.578 62.2076 70.48C62.3336 70.298 62.4316 70.193 62.5016 70.165C62.5716 70.123 62.6836 70.102 62.8376 70.102H63.8456C63.9856 70.102 64.0976 70.144 64.1816 70.228C64.2796 70.298 64.3216 70.403 64.3076 70.543C64.2936 70.753 64.1816 71.012 63.9716 71.32C63.7616 71.614 63.4606 71.908 63.0686 72.202C62.6766 72.496 62.2006 72.741 61.6406 72.937C61.0806 73.119 60.4366 73.21 59.7086 73.21ZM56.8526 66.742H62.6066V66.679C62.6066 66.049 62.4876 65.489 62.2496 64.999C62.0256 64.509 61.6966 64.124 61.2626 63.844C60.8286 63.55 60.3106 63.403 59.7086 63.403C59.1066 63.403 58.5886 63.55 58.1546 63.844C57.7346 64.124 57.4126 64.509 57.1886 64.999C56.9646 65.489 56.8526 66.049 56.8526 66.679V66.742ZM67.5956 73C67.4556 73 67.3366 72.958 67.2386 72.874C67.1546 72.776 67.1126 72.657 67.1126 72.517V62.563C67.1126 62.423 67.1546 62.311 67.2386 62.227C67.3366 62.129 67.4556 62.08 67.5956 62.08H71.9636C73.2796 62.08 74.2666 62.346 74.9246 62.878C75.5966 63.41 75.9326 64.124 75.9326 65.02C75.9326 65.65 75.8136 66.126 75.5756 66.448C75.3376 66.77 75.0016 67.043 74.5676 67.267C75.0996 67.491 75.4986 67.855 75.7646 68.359C76.0446 68.849 76.1846 69.36 76.1846 69.892C76.1846 70.9 75.8276 71.67 75.1136 72.202C74.3996 72.734 73.4056 73 72.1316 73H67.5956ZM69.0446 71.467H71.9636C72.6356 71.467 73.1746 71.341 73.5806 71.089C74.0006 70.823 74.2106 70.424 74.2106 69.892C74.2106 69.332 74.0216 68.926 73.6436 68.674C73.2656 68.408 72.7056 68.275 71.9636 68.275H69.0446V71.467ZM69.0446 66.721H71.8376C72.5096 66.721 73.0416 66.574 73.4336 66.28C73.8396 65.986 74.0426 65.573 74.0426 65.041C74.0426 64.495 73.8396 64.124 73.4336 63.928C73.0416 63.718 72.5096 63.613 71.8376 63.613H69.0446V66.721ZM81.9291 73.21C81.2291 73.21 80.5921 73.07 80.0181 72.79C79.4441 72.51 78.9821 72.132 78.6321 71.656C78.2821 71.18 78.1071 70.641 78.1071 70.039C78.1071 69.073 78.4991 68.303 79.2831 67.729C80.0671 67.155 81.0891 66.777 82.3491 66.595L85.4781 66.154V65.545C85.4781 64.873 85.2821 64.348 84.8901 63.97C84.5121 63.592 83.8891 63.403 83.0211 63.403C82.3911 63.403 81.8801 63.529 81.4881 63.781C81.1101 64.033 80.8441 64.355 80.6901 64.747C80.6061 64.957 80.4591 65.062 80.2491 65.062H79.3041C79.1501 65.062 79.0311 65.02 78.9471 64.936C78.8771 64.838 78.8421 64.726 78.8421 64.6C78.8421 64.39 78.9191 64.131 79.0731 63.823C79.2411 63.515 79.4931 63.214 79.8291 62.92C80.1651 62.626 80.5921 62.381 81.1101 62.185C81.6421 61.975 82.2861 61.87 83.0421 61.87C83.8821 61.87 84.5891 61.982 85.1631 62.206C85.7371 62.416 86.1851 62.703 86.5071 63.067C86.8431 63.431 87.0811 63.844 87.2211 64.306C87.3751 64.768 87.4521 65.237 87.4521 65.713V72.517C87.4521 72.657 87.4031 72.776 87.3051 72.874C87.2211 72.958 87.1091 73 86.9691 73H86.0031C85.8491 73 85.7301 72.958 85.6461 72.874C85.5621 72.776 85.5201 72.657 85.5201 72.517V71.614C85.3381 71.866 85.0931 72.118 84.7851 72.37C84.4771 72.608 84.0921 72.811 83.6301 72.979C83.1681 73.133 82.6011 73.21 81.9291 73.21ZM82.3701 71.635C82.9441 71.635 83.4691 71.516 83.9451 71.278C84.4211 71.026 84.7921 70.641 85.0581 70.123C85.3381 69.605 85.4781 68.954 85.4781 68.17V67.582L83.0421 67.939C82.0481 68.079 81.2991 68.317 80.7951 68.653C80.2911 68.975 80.0391 69.388 80.0391 69.892C80.0391 70.284 80.1511 70.613 80.3751 70.879C80.6131 71.131 80.9071 71.32 81.2571 71.446C81.6211 71.572 81.9921 71.635 82.3701 71.635ZM96.1015 73C95.9615 73 95.8425 72.958 95.7445 72.874C95.6605 72.776 95.6185 72.657 95.6185 72.517V62.563C95.6185 62.423 95.6605 62.311 95.7445 62.227C95.8425 62.129 95.9615 62.08 96.1015 62.08H97.0885C97.2285 62.08 97.3405 62.129 97.4245 62.227C97.5225 62.311 97.5715 62.423 97.5715 62.563V66.595H99.4825L102.317 62.395C102.387 62.297 102.464 62.22 102.548 62.164C102.632 62.108 102.744 62.08 102.884 62.08H103.976C104.102 62.08 104.207 62.108 104.291 62.164C104.375 62.22 104.417 62.304 104.417 62.416C104.417 62.444 104.403 62.486 104.375 62.542C104.361 62.584 104.34 62.626 104.312 62.668L101.162 67.309L104.732 72.391C104.802 72.475 104.837 72.566 104.837 72.664C104.837 72.776 104.795 72.86 104.711 72.916C104.641 72.972 104.543 73 104.417 73H103.136C103.01 73 102.905 72.972 102.821 72.916C102.737 72.86 102.66 72.783 102.59 72.685L99.5035 68.296H97.5715V72.517C97.5715 72.657 97.5225 72.776 97.4245 72.874C97.3405 72.958 97.2285 73 97.0885 73H96.1015ZM111.35 73.21C110.286 73.21 109.397 73.007 108.683 72.601C107.969 72.195 107.423 71.635 107.045 70.921C106.667 70.193 106.457 69.367 106.415 68.443C106.401 68.205 106.394 67.904 106.394 67.54C106.394 67.162 106.401 66.861 106.415 66.637C106.457 65.699 106.667 64.873 107.045 64.159C107.437 63.445 107.99 62.885 108.704 62.479C109.418 62.073 110.3 61.87 111.35 61.87C112.4 61.87 113.282 62.073 113.996 62.479C114.71 62.885 115.256 63.445 115.634 64.159C116.026 64.873 116.243 65.699 116.285 66.637C116.299 66.861 116.306 67.162 116.306 67.54C116.306 67.904 116.299 68.205 116.285 68.443C116.243 69.367 116.033 70.193 115.655 70.921C115.277 71.635 114.731 72.195 114.017 72.601C113.303 73.007 112.414 73.21 111.35 73.21ZM111.35 71.593C112.218 71.593 112.911 71.32 113.429 70.774C113.947 70.214 114.227 69.402 114.269 68.338C114.283 68.128 114.29 67.862 114.29 67.54C114.29 67.218 114.283 66.952 114.269 66.742C114.227 65.678 113.947 64.873 113.429 64.327C112.911 63.767 112.218 63.487 111.35 63.487C110.482 63.487 109.782 63.767 109.25 64.327C108.732 64.873 108.459 65.678 108.431 66.742C108.417 66.952 108.41 67.218 108.41 67.54C108.41 67.862 108.417 68.128 108.431 68.338C108.459 69.402 108.732 70.214 109.25 70.774C109.782 71.32 110.482 71.593 111.35 71.593ZM119.398 73C119.258 73 119.146 72.958 119.062 72.874C118.978 72.79 118.936 72.678 118.936 72.538V62.479C118.936 62.367 118.978 62.276 119.062 62.206C119.16 62.122 119.258 62.08 119.356 62.08H120.427C120.651 62.08 120.826 62.192 120.952 62.416L124.522 69.094L128.113 62.416C128.239 62.192 128.414 62.08 128.638 62.08H129.688C129.8 62.08 129.898 62.122 129.982 62.206C130.066 62.276 130.108 62.367 130.108 62.479V72.538C130.108 72.678 130.066 72.79 129.982 72.874C129.898 72.958 129.793 73 129.667 73H128.638C128.498 73 128.386 72.958 128.302 72.874C128.218 72.79 128.176 72.678 128.176 72.538V64.159L128.911 64.243L125.488 70.711C125.418 70.851 125.334 70.977 125.236 71.089C125.138 71.201 124.991 71.257 124.795 71.257H124.249C124.067 71.257 123.927 71.201 123.829 71.089C123.731 70.977 123.64 70.851 123.556 70.711L120.238 64.558L120.889 64.495V72.538C120.889 72.678 120.847 72.79 120.763 72.874C120.679 72.958 120.567 73 120.427 73H119.398ZM133.733 73C133.593 73 133.474 72.958 133.376 72.874C133.292 72.776 133.25 72.657 133.25 72.517V62.563C133.25 62.423 133.292 62.311 133.376 62.227C133.474 62.129 133.593 62.08 133.733 62.08H142.07C142.21 62.08 142.322 62.129 142.406 62.227C142.504 62.311 142.553 62.423 142.553 62.563V72.517C142.553 72.657 142.504 72.776 142.406 72.874C142.322 72.958 142.21 73 142.07 73H141.062C140.922 73 140.81 72.958 140.726 72.874C140.642 72.776 140.6 72.657 140.6 72.517V63.76H135.203V72.517C135.203 72.657 135.161 72.776 135.077 72.874C134.993 72.958 134.881 73 134.741 73H133.733ZM148.723 73.21C148.023 73.21 147.386 73.07 146.812 72.79C146.238 72.51 145.776 72.132 145.426 71.656C145.076 71.18 144.901 70.641 144.901 70.039C144.901 69.073 145.293 68.303 146.077 67.729C146.861 67.155 147.883 66.777 149.143 66.595L152.272 66.154V65.545C152.272 64.873 152.076 64.348 151.684 63.97C151.306 63.592 150.683 63.403 149.815 63.403C149.185 63.403 148.674 63.529 148.282 63.781C147.904 64.033 147.638 64.355 147.484 64.747C147.4 64.957 147.253 65.062 147.043 65.062H146.098C145.944 65.062 145.825 65.02 145.741 64.936C145.671 64.838 145.636 64.726 145.636 64.6C145.636 64.39 145.713 64.131 145.867 63.823C146.035 63.515 146.287 63.214 146.623 62.92C146.959 62.626 147.386 62.381 147.904 62.185C148.436 61.975 149.08 61.87 149.836 61.87C150.676 61.87 151.383 61.982 151.957 62.206C152.531 62.416 152.979 62.703 153.301 63.067C153.637 63.431 153.875 63.844 154.015 64.306C154.169 64.768 154.246 65.237 154.246 65.713V72.517C154.246 72.657 154.197 72.776 154.099 72.874C154.015 72.958 153.903 73 153.763 73H152.797C152.643 73 152.524 72.958 152.44 72.874C152.356 72.776 152.314 72.657 152.314 72.517V71.614C152.132 71.866 151.887 72.118 151.579 72.37C151.271 72.608 150.886 72.811 150.424 72.979C149.962 73.133 149.395 73.21 148.723 73.21ZM149.164 71.635C149.738 71.635 150.263 71.516 150.739 71.278C151.215 71.026 151.586 70.641 151.852 70.123C152.132 69.605 152.272 68.954 152.272 68.17V67.582L149.836 67.939C148.842 68.079 148.093 68.317 147.589 68.653C147.085 68.975 146.833 69.388 146.833 69.892C146.833 70.284 146.945 70.613 147.169 70.879C147.407 71.131 147.701 71.32 148.051 71.446C148.415 71.572 148.786 71.635 149.164 71.635ZM157.748 73C157.608 73 157.489 72.958 157.391 72.874C157.307 72.776 157.265 72.657 157.265 72.517V62.563C157.265 62.423 157.307 62.311 157.391 62.227C157.489 62.129 157.608 62.08 157.748 62.08H158.756C158.896 62.08 159.008 62.129 159.092 62.227C159.176 62.311 159.218 62.423 159.218 62.563V66.595H164.951V62.563C164.951 62.423 164.993 62.311 165.077 62.227C165.175 62.129 165.294 62.08 165.434 62.08H166.421C166.561 62.08 166.673 62.129 166.757 62.227C166.855 62.311 166.904 62.423 166.904 62.563V72.517C166.904 72.657 166.855 72.776 166.757 72.874C166.673 72.958 166.561 73 166.421 73H165.434C165.294 73 165.175 72.958 165.077 72.874C164.993 72.776 164.951 72.657 164.951 72.517V68.275H159.218V72.517C159.218 72.657 159.176 72.776 159.092 72.874C159.008 72.958 158.896 73 158.756 73H157.748ZM170.545 73C170.405 73 170.286 72.958 170.188 72.874C170.104 72.776 170.062 72.657 170.062 72.517V62.563C170.062 62.423 170.104 62.311 170.188 62.227C170.286 62.129 170.405 62.08 170.545 62.08H171.553C171.693 62.08 171.805 62.129 171.889 62.227C171.973 62.311 172.015 62.423 172.015 62.563V72.517C172.015 72.657 171.973 72.776 171.889 72.874C171.805 72.958 171.693 73 171.553 73H170.545ZM170.377 60.043C170.237 60.043 170.118 60.001 170.02 59.917C169.936 59.819 169.894 59.7 169.894 59.56V58.426C169.894 58.286 169.936 58.174 170.02 58.09C170.118 57.992 170.237 57.943 170.377 57.943H171.7C171.84 57.943 171.952 57.992 172.036 58.09C172.134 58.174 172.183 58.286 172.183 58.426V59.56C172.183 59.7 172.134 59.819 172.036 59.917C171.952 60.001 171.84 60.043 171.7 60.043H170.377ZM181.952 73C181.798 73 181.679 72.958 181.595 72.874C181.511 72.776 181.469 72.657 181.469 72.517V69.094H179.054V68.989C177.738 68.989 176.758 68.667 176.114 68.023C175.484 67.365 175.169 66.532 175.169 65.524C175.169 64.348 175.512 63.48 176.198 62.92C176.898 62.36 177.948 62.08 179.348 62.08H182.96C183.1 62.08 183.212 62.129 183.296 62.227C183.394 62.311 183.443 62.423 183.443 62.563V72.517C183.443 72.657 183.394 72.776 183.296 72.874C183.212 72.958 183.1 73 182.96 73H181.952ZM175.295 73C175.169 73 175.064 72.958 174.98 72.874C174.896 72.79 174.854 72.692 174.854 72.58C174.854 72.524 174.861 72.468 174.875 72.412C174.903 72.342 174.945 72.272 175.001 72.202L177.5 68.506L179.516 68.653L176.849 72.685C176.793 72.755 176.716 72.825 176.618 72.895C176.52 72.965 176.415 73 176.303 73H175.295ZM179.117 67.519H181.49V63.655H179.285C178.501 63.655 177.92 63.795 177.542 64.075C177.178 64.341 176.996 64.824 176.996 65.524C176.996 66.098 177.164 66.574 177.5 66.952C177.85 67.33 178.389 67.519 179.117 67.519Z" fill="white"/>
</svg>
