<svg width="141" height="141" viewBox="0 0 141 141" fill="none" xmlns="http://www.w3.org/2000/svg">
<g clip-path="url(#clip0_25_107)">
<path d="M123.375 141H111.625V111.372C111.62 106.766 109.789 102.35 106.532 99.0934C103.275 95.8365 98.8586 94.0047 94.2526 94H46.7474C42.1414 94.0047 37.7253 95.8365 34.4684 99.0934C31.2115 102.35 29.3797 106.766 29.375 111.372V141H17.625V111.372C17.6343 103.652 20.7056 96.2495 26.165 90.7901C31.6245 85.3306 39.0265 82.2593 46.7474 82.25H94.2526C101.973 82.2593 109.375 85.3306 114.835 90.7901C120.294 96.2495 123.366 103.652 123.375 111.372V141Z" fill="black"/>
<path d="M70.5 70.4999C63.5282 70.4999 56.713 68.4325 50.9161 64.5592C45.1193 60.6859 40.6012 55.1806 37.9332 48.7395C35.2653 42.2984 34.5672 35.2108 35.9273 28.373C37.2874 21.5351 40.6447 15.2542 45.5745 10.3244C50.5043 5.39458 56.7852 2.03734 63.6231 0.677213C70.4609 -0.682916 77.5485 0.0151513 83.9896 2.68314C90.4307 5.35113 95.936 9.86921 99.8093 15.666C103.683 21.4629 105.75 28.2781 105.75 35.2499C105.741 44.5959 102.024 53.5565 95.4152 60.1651C88.8066 66.7737 79.846 70.4906 70.5 70.4999ZM70.5 11.7499C65.8521 11.7499 61.3087 13.1281 57.4441 15.7104C53.5795 18.2926 50.5675 21.9628 48.7888 26.2568C47.0102 30.5509 46.5448 35.276 47.4515 39.8345C48.3583 44.3931 50.5965 48.5804 53.883 51.8669C57.1695 55.1534 61.3568 57.3916 65.9154 58.2984C70.4739 59.2051 75.199 58.7397 79.4931 56.9611C83.7871 55.1824 87.4573 52.1703 90.0395 48.3058C92.6217 44.4412 94 39.8978 94 35.2499C94 29.0173 91.5241 23.04 87.117 18.6329C82.7099 14.2258 76.7326 11.7499 70.5 11.7499Z" fill="black"/>
</g>
<defs>
<clipPath id="clip0_25_107">
<rect width="141" height="141" fill="white"/>
</clipPath>
</defs>
</svg>
